<svg width="200" height="133" viewBox="0 0 200 133" fill="none" xmlns="http://www.w3.org/2000/svg">
<path d="M51.623 97.4368C51.623 83.3356 56.9285 69.9325 67.5393 57.2274C78.1501 44.5223 90.0873 38.1 103.351 37.9604C110.471 37.9604 116.754 41.381 122.199 48.2222C124.433 44.0337 127.644 41.9394 131.832 41.9394C133.647 41.9394 135.253 42.4979 136.649 43.6148C138.045 44.7318 138.743 46.1279 138.743 47.8033C138.743 49.6183 136.161 60.7876 130.995 81.3112C125.829 101.835 123.176 113.423 123.037 116.076C123.037 119.566 123.525 121.87 124.503 122.987C125.48 124.103 126.946 124.732 128.901 124.871C130.157 124.732 131.553 124.103 133.089 122.987C136.021 120.194 138.883 113.493 141.675 102.882C142.513 100.09 143.211 98.6236 143.77 98.4839C144.049 98.3443 144.747 98.2745 145.864 98.2745H146.702C149.354 98.2745 150.681 98.9028 150.681 100.159C150.681 100.997 150.332 102.882 149.634 105.814C148.935 108.746 147.539 112.515 145.445 117.123C143.351 121.73 141.117 125.22 138.743 127.594C136.928 129.409 134.695 130.875 132.042 131.992C130.925 132.271 129.25 132.411 127.016 132.411C122.269 132.411 118.29 131.364 115.079 129.269C111.867 127.175 109.773 125.011 108.796 122.777L107.539 119.636C107.4 119.496 107.12 119.566 106.702 119.845C106.422 120.124 106.143 120.404 105.864 120.683C97.6265 128.501 89.2496 132.411 80.733 132.411C73.0541 132.411 66.2827 129.618 60.4189 124.034C54.555 118.449 51.623 109.583 51.623 97.4368ZM118.22 61.6253C118.22 60.7876 117.871 59.2518 117.173 57.018C116.475 54.7841 114.869 52.3408 112.356 49.6881C109.843 47.0354 106.632 45.6393 102.723 45.4996C97.836 45.4996 93.1588 47.6637 88.6911 51.9918C84.2234 56.3199 80.733 61.9743 78.2199 68.9551C74.171 79.9848 71.3089 91.4333 69.6335 103.301C69.6335 103.72 69.6335 104.487 69.6335 105.604C69.6335 106.721 69.5637 107.559 69.4241 108.117C69.4241 114.4 70.6806 118.728 73.1937 121.102C75.7068 123.475 78.7086 124.732 82.199 124.871C87.5044 124.871 92.74 122.568 97.9058 117.96C103.072 113.353 106.143 109.793 107.12 107.28C107.4 106.721 109.284 99.2518 112.775 84.8714C116.265 70.4909 118.08 62.7422 118.22 61.6253Z" fill="#3A3A3A"/>
<path d="M0 12.8295C0 9.47867 1.18674 6.54673 3.56021 4.03364C5.93368 1.52055 8.93543 0.264006 12.5654 0.264006C15.9162 0.264006 18.8482 1.38093 21.3613 3.61479C23.8743 5.84865 25.2007 8.85039 25.3403 12.62C25.3403 16.1104 24.1536 19.1122 21.7801 21.6253C19.4066 24.1384 16.4049 25.3949 12.7749 25.3949C9.14485 25.3949 6.14311 24.2082 3.76963 21.8347C1.39616 19.4612 0.139616 16.4595 0 12.8295Z" fill="#3A3A3A"/>
<path d="M58.22 12.8295C58.22 9.47867 59.4067 6.54673 61.7802 4.03364C64.1537 1.52055 67.1554 0.264006 70.7854 0.264006C74.1362 0.264006 77.0681 1.38093 79.5812 3.61479C82.0943 5.84865 83.4207 8.85039 83.5603 12.62C83.5603 16.1104 82.3735 19.1122 80.0001 21.6253C77.6266 24.1384 74.6249 25.3949 70.9948 25.3949C67.3648 25.3949 64.3631 24.2082 61.9896 21.8347C59.6161 19.4612 58.3596 16.4595 58.22 12.8295Z" fill="#3A3A3A"/>
<path d="M116.44 12.8295C116.44 9.47867 117.626 6.54673 120 4.03364C122.373 1.52055 125.375 0.264006 129.005 0.264006C132.356 0.264006 135.288 1.38093 137.801 3.61479C140.314 5.84865 141.64 8.85039 141.78 12.62C141.78 16.1104 140.593 19.1122 138.22 21.6253C135.846 24.1384 132.845 25.3949 129.215 25.3949C125.585 25.3949 122.583 24.2082 120.209 21.8347C117.836 19.4612 116.579 16.4595 116.44 12.8295Z" fill="#3A3A3A"/>
<path d="M174.66 12.8295C174.66 9.47867 175.846 6.54673 178.22 4.03364C180.593 1.52055 183.595 0.264006 187.225 0.264006C190.576 0.264006 193.508 1.38093 196.021 3.61479C198.534 5.84865 199.86 8.85039 200 12.62C200 16.1104 198.813 19.1122 196.44 21.6253C194.066 24.1384 191.065 25.3949 187.435 25.3949C183.805 25.3949 180.803 24.2082 178.429 21.8347C176.056 19.4612 174.799 16.4595 174.66 12.8295Z" fill="#3A3A3A"/>
</svg>
