<svg width="142" height="132" viewBox="0 0 142 132" fill="none" xmlns="http://www.w3.org/2000/svg">
<path d="M22.488 97.065C22.488 82.9794 27.7876 69.5911 38.3866 56.9002C48.9857 44.2092 60.9096 37.794 74.1584 37.6545C81.2709 37.6545 87.5467 41.0713 92.9857 47.9049C95.217 43.7211 98.4246 41.6292 102.608 41.6292C104.421 41.6292 106.025 42.187 107.42 43.3027C108.814 44.4184 109.512 45.813 109.512 47.4865C109.512 49.2995 106.932 60.4564 101.772 80.9572C96.6116 101.458 93.9619 113.033 93.8224 115.683C93.8224 119.17 94.3105 121.471 95.2868 122.586C96.263 123.702 97.7273 124.33 99.6798 124.469C100.935 124.33 102.33 123.702 103.864 122.586C106.792 119.797 109.651 113.103 112.44 102.504C113.277 99.7147 113.975 98.2504 114.532 98.1109C114.811 97.9715 115.509 97.9017 116.624 97.9017H117.461C120.111 97.9017 121.436 98.5293 121.436 99.7845C121.436 100.621 121.087 102.504 120.39 105.433C119.692 108.361 118.298 112.127 116.206 116.729C114.114 121.331 111.883 124.818 109.512 127.189C107.699 129.002 105.467 130.466 102.818 131.582C101.702 131.861 100.028 132 97.7971 132C93.0554 132 89.0807 130.954 85.8731 128.862C82.6655 126.77 80.5736 124.609 79.5974 122.377L78.3422 119.239C78.2028 119.1 77.9238 119.17 77.5055 119.448C77.2265 119.727 76.9476 120.006 76.6687 120.285C68.4405 128.095 60.0728 132 51.5657 132C43.8953 132 37.1315 129.211 31.2741 123.632C25.4167 118.054 22.488 109.198 22.488 97.065ZM89.011 61.2932C89.011 60.4564 88.6624 58.9223 87.965 56.691C87.2677 54.4596 85.6639 52.019 83.1536 49.3693C80.6433 46.7195 77.4357 45.3249 73.5308 45.1854C68.6497 45.1854 63.9777 47.3471 59.515 51.6704C55.0522 55.9937 51.5657 61.6418 49.0554 68.6149C45.011 79.6323 42.1521 91.0681 40.4785 102.922C40.4785 103.341 40.4785 104.108 40.4785 105.223C40.4785 106.339 40.4088 107.176 40.2693 107.734C40.2693 114.01 41.5245 118.333 44.0348 120.704C46.5451 123.074 49.5435 124.33 53.03 124.469C58.3296 124.469 63.5593 122.168 68.7194 117.566C73.8795 112.964 76.9476 109.407 77.9238 106.897C78.2028 106.339 80.0855 98.878 83.572 84.5135C87.0586 70.149 88.8716 62.4089 89.011 61.2932Z" fill="#3A3A3A"/>
<path d="M0 12.5515C0 9.20445 1.18542 6.27577 3.55626 3.76547C5.9271 1.25517 8.92551 1.52588e-05 12.5515 1.52588e-05C15.8986 1.52588e-05 18.8273 1.1157 21.3376 3.34708C23.8479 5.57846 25.1727 8.57688 25.3122 12.3423C25.3122 15.8289 24.1268 18.8273 21.7559 21.3376C19.3851 23.8479 16.3867 25.103 12.7607 25.103C9.13471 25.103 6.13629 23.9176 3.76545 21.5468C1.39461 19.1759 0.139461 16.1775 0 12.5515Z" fill="#3A3A3A"/>
<path d="M58.1553 12.5515C58.1553 9.20445 59.3407 6.27577 61.7115 3.76547C64.0824 1.25517 67.0808 1.52588e-05 70.7068 1.52588e-05C74.0538 1.52588e-05 76.9825 1.1157 79.4928 3.34708C82.0031 5.57846 83.328 8.57688 83.4675 12.3423C83.4675 15.8289 82.2821 18.8273 79.9112 21.3376C77.5404 23.8479 74.542 25.103 70.916 25.103C67.29 25.103 64.2916 23.9176 61.9207 21.5468C59.5499 19.1759 58.2947 16.1775 58.1553 12.5515Z" fill="#3A3A3A"/>
<path d="M116.311 12.5515C116.311 9.20445 117.496 6.27577 119.867 3.76547C122.238 1.25517 125.236 1.52588e-05 128.862 1.52588e-05C132.209 1.52588e-05 135.138 1.1157 137.648 3.34708C140.158 5.57846 141.483 8.57688 141.623 12.3423C141.623 15.8289 140.437 18.8273 138.066 21.3376C135.696 23.8479 132.697 25.103 129.071 25.103C125.445 25.103 122.447 23.9176 120.076 21.5468C117.705 19.1759 116.45 16.1775 116.311 12.5515Z" fill="#3A3A3A"/>
</svg>
