<svg width="64" height="64" viewBox="0 0 64 64" fill="none" xmlns="http://www.w3.org/2000/svg">
<path d="M10.8 46.32C9.81333 46.32 8.68 46.2533 7.4 46.12C6.12 45.9867 4.98667 45.8133 4 45.6V41.16C6.05333 41.3733 7.92 41.48 9.6 41.48C10.6933 41.48 11.4933 41.4133 12 41.28C12.5333 41.1467 12.92 40.8533 13.16 40.4C13.4 39.92 13.52 39.16 13.52 38.12C13.52 37.08 13.4267 36.3067 13.24 35.8C13.0533 35.2667 12.7467 34.92 12.32 34.76C11.92 34.5733 11.32 34.48 10.52 34.48H6.76V29.68H10.52C11.2667 29.68 11.8267 29.6133 12.2 29.48C12.5733 29.32 12.84 29 13 28.52C13.1867 28.04 13.28 27.2933 13.28 26.28C13.28 25.2667 13.1733 24.5333 12.96 24.08C12.7467 23.6267 12.3733 23.3333 11.84 23.2C11.3333 23.0667 10.5067 23 9.36 23C8.10667 23 6.33333 23.1067 4.04 23.32V18.88C5.02667 18.6667 6.14667 18.4933 7.4 18.36C8.68 18.2267 9.81333 18.16 10.8 18.16C12.72 18.16 14.2533 18.3867 15.4 18.84C16.5733 19.2933 17.4267 20.04 17.96 21.08C18.52 22.0933 18.8 23.4933 18.8 25.28C18.8 27.28 18.4933 28.8 17.88 29.84C17.2933 30.88 16.3867 31.56 15.16 31.88V32.04C16.4933 32.3867 17.4667 33.0533 18.08 34.04C18.72 35 19.04 36.5733 19.04 38.76C19.04 40.5733 18.7733 42.0267 18.24 43.12C17.7333 44.2133 16.88 45.0267 15.68 45.56C14.48 46.0667 12.8533 46.32 10.8 46.32Z" fill="#E05053"/>
<path d="M22.5409 18.48H31.6209C33.5676 18.48 35.0343 18.8267 36.0209 19.52C37.0343 20.2133 37.7143 21.2267 38.0609 22.56C38.4076 23.8667 38.5809 25.6133 38.5809 27.8C38.5809 29.9067 38.4209 31.6267 38.1009 32.96C37.7809 34.2667 37.1143 35.3067 36.1009 36.08C35.0876 36.8267 33.5809 37.2 31.5809 37.2H28.0609V46H22.5409V18.48ZM30.2209 32.36C31.1276 32.36 31.7676 32.2533 32.1409 32.04C32.5143 31.8267 32.7543 31.4267 32.8609 30.84C32.9943 30.2267 33.0609 29.2133 33.0609 27.8C33.0609 26.3867 32.9943 25.3867 32.8609 24.8C32.7543 24.2133 32.5143 23.8267 32.1409 23.64C31.7943 23.4267 31.1676 23.32 30.2609 23.32H28.0609V32.36H30.2209ZM52.6453 46V34.68H47.0053V46H41.5253V18.48H47.0053V29.6H52.6453V18.48H58.1253V46H52.6453Z" fill="#6B6B6B"/>
</svg>
