<svg width="64" height="64" viewBox="0 0 64 64" fill="none" xmlns="http://www.w3.org/2000/svg">
<g clip-path="url(#clip0_4387_1964)">
<path d="M56.877 0H7.12298C3.20534 0 0 3.2 0 7.11111V56.8889C0 60.8 3.20534 64 7.12298 64H56.877C60.7947 64 64 60.8 64 56.8889V7.11111C64 5.22513 63.2496 3.41639 61.9137 2.0828C60.5779 0.749204 58.7661 0 56.877 0ZM51.2142 49.7067C51.1074 49.7422 50.9649 49.7778 50.8581 49.7778H42.8091C42.4606 49.7837 42.1182 49.6852 41.8262 49.4951C41.5342 49.305 41.306 49.0319 41.1708 48.7111L32.4096 28.3022C32.3383 28.0889 32.1247 27.9822 31.9466 28.0533C31.8897 28.0747 31.838 28.108 31.795 28.1509C31.752 28.1938 31.7187 28.2454 31.6973 28.3022L26.2482 41.28C26.1413 41.5289 26.2482 41.7778 26.4975 41.8844C26.5687 41.92 26.6043 41.92 26.6756 41.92H32.6589C33.015 41.92 33.3712 42.1333 33.5136 42.4889L36.1491 48.32C36.3984 48.8533 36.1135 49.4933 35.5793 49.7422C35.3656 49.7422 35.2232 49.7778 35.0807 49.7778H13.2844C12.7501 49.7778 12.2871 49.3156 12.2871 48.7822C12.2871 48.64 12.3228 48.5333 12.3584 48.3911L26.2482 15.3956C26.5331 14.6844 27.2454 14.2222 27.9933 14.2222H36.0067C36.7902 14.2222 37.4669 14.6844 37.7518 15.3956L51.7129 48.3911C51.9622 48.8889 51.7485 49.4933 51.2142 49.7067Z" fill="#FA0F00"/>
</g>
<defs>
<clipPath id="clip0_4387_1964">
<rect width="64" height="64" fill="white"/>
</clipPath>
</defs>
</svg>
