<svg width="64" height="64" viewBox="0 0 64 64" fill="none" xmlns="http://www.w3.org/2000/svg">
<path d="M47.85 7C47.2715 7 46.382 7.18499 45.4137 8.07449L32.7127 19.7246C32.3585 20.0513 31.6422 20.0513 31.288 19.7246L18.5869 8.07449C17.6187 7.18499 16.7292 7 16.1507 7C14.7888 7 13.3247 8.05875 13.3247 10.3888V38.1051C13.3247 40.1557 14.4661 42.7415 15.9775 44.1269L28.6745 55.7338C29.5719 56.5524 30.7527 57.0051 32.0043 57.0051C33.2559 57.0051 34.4366 56.5564 35.334 55.7338L48.0272 44.1269C49.5425 42.7415 50.6799 40.1557 50.6799 38.1051V10.3888C50.6799 8.05875 49.2119 7 47.85 7" fill="#FFFF87"/>
<mask id="mask0_4387_1969" style="mask-type:luminance" maskUnits="userSpaceOnUse" x="13" y="7" width="38" height="51">
<path d="M47.85 7C47.2715 7 46.382 7.18499 45.4137 8.07449L32.7127 19.7246C32.3585 20.0513 31.6422 20.0513 31.288 19.7246L18.5869 8.07449C17.6187 7.18499 16.7292 7 16.1507 7C14.7888 7 13.3247 8.05875 13.3247 10.3888V38.1051C13.3247 40.1557 14.4661 42.7415 15.9775 44.1269L28.6745 55.7338C29.5719 56.5524 30.7527 57.0051 32.0043 57.0051C33.2559 57.0051 34.4366 56.5564 35.334 55.7338L48.0272 44.1269C49.5425 42.7415 50.6799 40.1557 50.6799 38.1051V10.3888C50.6799 8.05875 49.2119 7 47.85 7" fill="white"/>
</mask>
<g mask="url(#mask0_4387_1969)">
<path d="M53.7773 -2.50928L32.1064 16.6032V62.2592L53.7773 43.2057V-2.50928Z" fill="#47DED4"/>
</g>
<path d="M47.85 7C47.2715 7 46.382 7.18499 45.4137 8.07449L32.7127 19.7246C32.3585 20.0513 31.6422 20.0513 31.288 19.7246L18.5869 8.07449C17.6187 7.18499 16.7292 7 16.1507 7C14.7888 7 13.3247 8.05875 13.3247 10.3888V38.1051C13.3247 40.1557 14.4661 42.7415 15.9775 44.1269L28.6745 55.7338C29.5719 56.5524 30.7527 57.0051 32.0043 57.0051C33.2559 57.0051 34.4366 56.5564 35.334 55.7338L48.0272 44.1269C49.5425 42.7415 50.6799 40.1557 50.6799 38.1051V10.3888C50.6799 8.05875 49.2119 7 47.85 7" stroke="#66757F" stroke-width="4"/>
</svg>
