<svg width="512" height="512" viewBox="0 0 512 512" fill="none" xmlns="http://www.w3.org/2000/svg">
<g clip-path="url(#clip0_1438_77)">
<path d="M0 127.493V136.355C13.336 136.355 21.903 137.115 25.701 138.634C31.398 140.913 31.399 145.386 31.399 154.334V357.666C31.399 366.613 29.5 371.846 25.702 373.366C20.005 375.646 13.336 375.645 0.001 375.645V384.508H129.647C141.464 384.508 152.141 382.567 161.678 378.684C175.984 372.86 179.445 369.653 186.367 363.238C193.288 356.823 198.605 349.438 202.319 341.082C207.89 328.548 207.89 324.075 207.89 315.128C207.89 306.856 206.033 298.922 202.319 291.326C196.748 279.932 193.541 276.977 187.126 271.069C180.711 265.16 173.157 260.392 164.464 256.763C151.424 251.32 146.359 250.982 136.231 250.306C145.178 248.618 153.365 245.917 160.793 242.203C171.935 236.632 174.593 233.973 179.911 228.656C185.229 223.339 189.364 217.388 192.318 210.804C195.272 204.221 196.749 197.3 196.749 190.041C196.749 182.276 194.85 174.637 191.052 167.125C185.355 155.857 181.937 152.903 175.1 146.994C168.263 141.085 160.034 136.359 150.411 132.814C135.977 127.497 130.154 127.497 118.506 127.497H0.002L0 127.493ZM53.681 245.998V149.777C53.681 143.025 54.314 138.72 55.58 136.863C57.479 134.077 61.446 134.077 69.38 134.077H116.224C125.171 134.077 132.979 135.723 139.646 139.015C149.647 143.953 151.884 146.527 156.358 151.676C160.831 156.825 164.208 162.606 166.487 169.021C169.906 178.643 169.905 181.682 169.905 187.759C169.905 195.018 168.512 202.15 165.727 209.156C161.549 219.665 158.89 222.365 153.572 227.768C148.254 233.171 141.713 237.559 133.948 240.935C126.182 244.312 117.319 246 107.36 246H53.679L53.681 245.998ZM69.381 373.365C61.447 373.365 56.847 372.436 55.581 370.579C53.682 367.793 53.682 364.418 53.682 357.665V252.581H123.063C132.516 252.581 140.746 254.48 147.751 258.278C158.259 263.975 160.538 266.971 165.096 272.965C169.654 278.958 173.072 285.668 175.351 293.095C178.769 304.235 178.769 307.866 178.769 315.124C178.769 321.876 177.503 328.797 174.971 335.888C171.173 346.524 168.598 349.477 163.449 355.386C158.3 361.295 151.801 366.148 143.951 369.946C132.176 375.643 126.859 375.643 116.224 375.643H69.38L69.381 373.365ZM279.296 216.879C279.296 209.114 280.815 204.176 283.854 202.066C288.412 198.901 295.08 198.901 308.416 198.901V190.038C301.664 191.219 294.025 191.894 285.5 192.063C272.712 192.316 270.433 192.316 265.876 192.316C261.487 192.316 254.988 192.232 246.378 192.063C233.463 191.81 230.172 191.219 223.588 190.038V198.901C236.924 198.901 244.731 199.956 247.01 202.066C250.428 205.231 250.428 209.114 250.428 216.879V355.387C250.428 363.321 249.035 368.301 246.25 370.327C242.072 373.366 235.911 373.365 223.588 373.365V382.228H308.415V373.365C295.078 373.365 286.891 372.352 283.853 370.327C279.296 367.289 279.295 363.322 279.295 355.387L279.296 216.879ZM330.699 190.037V198.9C343.022 198.9 350.576 199.955 353.362 202.065C357.541 205.23 357.54 209.113 357.54 216.878V355.386C357.54 363.32 356.147 368.3 353.362 370.326C349.184 373.365 343.023 373.364 330.699 373.364V382.227H444.899C455.534 382.227 464.988 380.834 473.259 378.049C485.666 373.871 488.536 371.465 494.276 366.655C500.016 361.844 504.405 356.357 507.443 350.196C512 340.954 512.001 337.578 512.001 330.825C512.001 324.748 510.524 318.966 507.57 313.48C503.139 305.251 500.649 303.098 495.669 298.793C490.689 294.488 484.781 290.859 477.944 287.905C467.689 283.474 463.806 282.883 456.041 281.701C469.377 279.506 480.519 274.316 489.466 266.129C502.887 253.849 502.887 248.193 502.887 236.883C502.887 230.806 501.283 224.939 498.076 219.284C493.265 210.801 490.353 208.649 484.529 204.344C478.705 200.04 471.657 196.579 463.385 193.962C450.977 190.036 445.913 190.037 435.784 190.037H330.699ZM380.075 279.423V216.879C380.075 209.114 381.004 204.556 382.861 203.206C385.647 201.181 388.938 201.181 395.522 201.181H431.479C448.192 201.181 459.08 206.414 464.143 216.881C471.738 232.581 471.739 234.775 471.739 239.164C471.739 245.916 468.574 254.314 462.244 264.359C452.749 279.426 442.62 279.426 422.362 279.426H380.075V279.423ZM380.075 286.259H435.782C451.482 286.259 462.497 291.745 468.827 302.718C478.322 319.177 478.322 323.059 478.322 330.825C478.322 339.772 474.693 349.098 467.434 358.805C456.546 373.365 448.189 373.365 431.477 373.365H395.52C388.936 373.365 384.716 372.436 382.859 370.579C380.074 367.793 380.073 364.418 380.073 357.665V286.259H380.075Z" fill="black"/>
</g>
<defs>
<clipPath id="clip0_1438_77">
<rect width="512" height="512" fill="white"/>
</clipPath>
</defs>
</svg>
