<svg width="64" height="64" viewBox="0 0 64 64" fill="none" xmlns="http://www.w3.org/2000/svg">
<path d="M59.9999 35.2943C59.9999 38.9326 57.05 38.5884 53.4117 38.5884H10.5882C6.94988 38.5884 4 38.9326 4 35.2943L7.29411 15.5296C7.49999 12.3722 10.244 8.94141 13.8823 8.94141H50.1176C53.7559 8.94141 56.3615 12.5781 56.7058 15.5296L59.9999 35.2943Z" fill="#67757F"/>
<path d="M48.4704 23.7645C48.4704 24.6382 48.1234 25.476 47.5056 26.0938C46.8878 26.7116 46.05 27.0586 45.1763 27.0586H18.8234C17.9498 27.0586 17.1119 26.7116 16.4941 26.0938C15.8764 25.476 15.5293 24.6382 15.5293 23.7645V10.5881C15.5293 9.7144 15.8764 8.87653 16.4941 8.25877C17.1119 7.641 17.9498 7.29395 18.8234 7.29395H45.1763C46.05 7.29395 46.8878 7.641 47.5056 8.25877C48.1234 8.87653 48.4704 9.7144 48.4704 10.5881V23.7645Z" fill="#CCD6DD"/>
<path d="M51.7647 30.3534C51.7647 31.227 51.4176 32.0649 50.7999 32.6827C50.1821 33.3004 49.3442 33.6475 48.4706 33.6475H15.5295C14.6558 33.6475 13.8179 33.3004 13.2002 32.6827C12.5824 32.0649 12.2354 31.227 12.2354 30.3534V17.1769C12.2354 16.3033 12.5824 15.4654 13.2002 14.8476C13.8179 14.2299 14.6558 13.8828 15.5295 13.8828H48.4706C49.3442 13.8828 50.1821 14.2299 50.7999 14.8476C51.4176 15.4654 51.7647 16.3033 51.7647 17.1769V30.3534Z" fill="#E1E8ED"/>
<path d="M55.0587 36.9413C55.0587 37.8149 54.7117 38.6528 54.0939 39.2705C53.4761 39.8883 52.6383 40.2354 51.7646 40.2354H12.2353C11.3616 40.2354 10.5238 39.8883 9.90598 39.2705C9.28822 38.6528 8.94116 37.8149 8.94116 36.9413V23.7648C8.94116 22.8912 9.28822 22.0533 9.90598 21.4355C10.5238 20.8178 11.3616 20.4707 12.2353 20.4707H51.7646C52.6383 20.4707 53.4761 20.8178 54.0939 21.4355C54.7117 22.0533 55.0587 22.8912 55.0587 23.7648V36.9413Z" fill="#F5F8FA"/>
<path d="M59.9999 53.4119C59.9999 55.1592 59.3058 56.8349 58.0702 58.0705C56.8347 59.306 55.159 60.0001 53.4117 60.0001H10.5882C8.84092 60.0001 7.16518 59.306 5.92965 58.0705C4.69411 56.8349 4 55.1592 4 53.4119V35.2943C4 33.547 4.69411 31.8712 5.92965 30.6357C7.16518 29.4002 8.84092 28.7061 10.5882 28.7061H53.4117C55.159 28.7061 56.8347 29.4002 58.0702 30.6357C59.3058 31.8712 59.9999 33.547 59.9999 35.2943V53.4119Z" fill="#9AAAB4"/>
<path d="M38.5882 4H30.3529C29.4793 4 28.6414 4.34706 28.0237 4.96482C27.4059 5.58259 27.0588 6.42046 27.0588 7.29411V8.94117H33.6471C34.5207 8.94117 35.3586 9.28822 35.9763 9.90599C36.5941 10.5238 36.9412 11.3616 36.9412 12.2353H38.5882C39.4619 12.2353 40.2997 11.8882 40.9175 11.2705C41.5353 10.6527 41.8823 9.81482 41.8823 8.94117V7.29411C41.8823 6.42046 41.5353 5.58259 40.9175 4.96482C40.2997 4.34706 39.4619 4 38.5882 4Z" fill="#FCAB40"/>
<path d="M32.0001 10.5889H23.7648C22.8912 10.5889 22.0533 10.9359 21.4355 11.5537C20.8178 12.1715 20.4707 13.0093 20.4707 13.883V15.53H27.0589C27.9326 15.53 28.7704 15.8771 29.3882 16.4949C30.006 17.1126 30.353 17.9505 30.353 18.8241H32.0001C32.8737 18.8241 33.7116 18.4771 34.3294 17.8593C34.9471 17.2416 35.2942 16.4037 35.2942 15.53V13.883C35.2942 13.0093 34.9471 12.1715 34.3294 11.5537C33.7116 10.9359 32.8737 10.5889 32.0001 10.5889Z" fill="#5DADEC"/>
<path d="M28.7058 22.1169C28.7058 22.9906 28.3588 23.8285 27.741 24.4462C27.1232 25.064 26.2854 25.4111 25.4117 25.4111H17.1764C16.3028 25.4111 15.4649 25.064 14.8471 24.4462C14.2294 23.8285 13.8823 22.9906 13.8823 22.1169V20.4699C13.8823 19.5962 14.2294 18.7584 14.8471 18.1406C15.4649 17.5228 16.3028 17.1758 17.1764 17.1758H25.4117C26.2854 17.1758 27.1232 17.5228 27.741 18.1406C28.3588 18.7584 28.7058 19.5962 28.7058 20.4699V22.1169Z" fill="#E75A70"/>
<path d="M43.5295 48.4708C43.5295 49.3444 43.1824 50.1823 42.5647 50.8001C41.9469 51.4178 41.109 51.7649 40.2354 51.7649H23.7648C22.8912 51.7649 22.0533 51.4178 21.4355 50.8001C20.8178 50.1823 20.4707 49.3444 20.4707 48.4708V40.2355C20.4707 39.3619 20.8178 38.524 21.4355 37.9062C22.0533 37.2885 22.8912 36.9414 23.7648 36.9414H40.2354C41.109 36.9414 41.9469 37.2885 42.5647 37.9062C43.1824 38.524 43.5295 39.3619 43.5295 40.2355V48.4708Z" fill="#67757F"/>
<path d="M40.2352 46.8236C40.2352 47.2604 40.0617 47.6793 39.7528 47.9882C39.4439 48.2971 39.025 48.4706 38.5881 48.4706H25.4117C24.9749 48.4706 24.5559 48.2971 24.2471 47.9882C23.9382 47.6793 23.7646 47.2604 23.7646 46.8236V41.8824C23.7646 41.4456 23.9382 41.0266 24.2471 40.7178C24.5559 40.4089 24.9749 40.2354 25.4117 40.2354H38.5881C39.025 40.2354 39.4439 40.4089 39.7528 40.7178C40.0617 41.0266 40.2352 41.4456 40.2352 41.8824V46.8236Z" fill="#E1E8ED"/>
</svg>
