<svg width="512" height="512" viewBox="0 0 512 512" fill="none" xmlns="http://www.w3.org/2000/svg">
<path d="M145.569 399.818C146.301 427.035 149.037 433.899 183.089 436.345V457.077H61.654V436.345C95.706 433.899 99.446 427.035 100.178 399.818L100.156 230.508C43.412 228.588 34.056 240.608 25.466 279.68H0C4.936 257.305 9.824 235.95 9.824 205.287H235.9C235.9 235.951 238.369 257.305 243.305 279.68H218.35C209.76 240.608 202.312 228.588 145.568 230.507L145.569 399.818ZM383.115 394.665C383.948 416.472 394.331 430.24 433.118 432.199V457.078H282.343V432.199C321.129 430.239 330.58 416.471 331.413 394.664L331.388 88.3799C258.393 86.6419 238.326 94.945 232.114 144.39H202.504C208.845 118.903 207.864 89.8499 207.864 54.924H502.487C502.487 89.8509 505.658 118.904 512 144.389H479.94C468.903 99.885 447.748 86.1929 383.115 88.3789V394.665Z" fill="#379ED7"/>
</svg>
