<svg width="64" height="64" viewBox="0 0 64 64" fill="none" xmlns="http://www.w3.org/2000/svg">
<path d="M53 16.7196C53.9156 17.2418 54.6759 17.9981 55.203 18.9109C55.7301 19.8237 56.0052 20.8602 56 21.9142V41.3382C56 43.4956 54.8187 45.4849 52.912 46.5329L34.912 57.9196C34.0195 58.4093 33.018 58.666 32 58.666C30.982 58.666 29.9805 58.4093 29.088 57.9196L11.088 46.5329C10.156 46.022 9.37803 45.2706 8.83495 44.3571C8.29186 43.4435 8.00355 42.401 8 41.3382V21.9116C8 19.7542 9.18133 17.7676 11.088 16.7196L29.088 6.10622C30.0068 5.59965 31.0388 5.33398 32.088 5.33398C33.1372 5.33398 34.1692 5.59965 35.088 6.10622L53.088 16.7196H53Z" fill="#FAE4FF" stroke="#A760D0" stroke-width="5.33333" stroke-linecap="round" stroke-linejoin="round"/>
<path d="M32 12.4894C32 11.7294 31.1857 11.2472 30.5193 11.6125L13.5193 20.9316C13.1991 21.1072 13 21.4433 13 21.8085V40.1146C13 40.874 13.8132 41.3563 14.4796 40.9921L31.4796 31.7005C31.8004 31.5252 32 31.1887 32 30.823V12.4894Z" fill="#A760D0"/>
</svg>
