<svg version="1.1" xmlns="http://www.w3.org/2000/svg" viewBox="0 0 30 30" fill="none" stroke-width="1.5" stroke-linecap="round" stroke-linejoin="round" preserveAspectRatio="xMidYMid meet"><path d="M5.5 25.25V11.75C5.5 11.5926 5.5741 11.4444 5.7 11.35L14.7 4.6C14.8778 4.46667 15.1222 4.46667 15.3 4.6L24.3 11.35C24.4259 11.4444 24.5 11.5926 24.5 11.75V25.25C24.5 25.5261 24.2761 25.75 24 25.75H18.5C18.2239 25.75 18 25.5261 18 25.25V18.5C18 17.6716 17.3284 17 16.5 17H13.5C12.6716 17 12 17.6716 12 18.5V25.25C12 25.5261 11.7761 25.75 11.5 25.75H6C5.72386 25.75 5.5 25.5261 5.5 25.25Z" fill="none" stroke="#00BCD4"/></svg>