<svg width="64" height="64" viewBox="0 0 64 64" fill="none" xmlns="http://www.w3.org/2000/svg">
<g clip-path="url(#clip0_74_8193)">
<rect width="54.4" height="54.4" transform="translate(7.04004 2.56006)" fill="white"/>
<rect x="7" y="3" width="55" height="55" fill="#AFC6F0"/>
<g clip-path="url(#clip1_74_8193)">
<path d="M-67.0464 34.6908L-66.8678 34.8756L-66.6892 35.0372L-66.4213 35.222L-66.2428 35.4068L-66.0642 35.6147L-65.8856 35.7994L-65.707 36.0073L-65.5284 36.2152L-65.2606 36.423L-65.082 36.6309L-64.9034 36.8387L-64.7248 37.0466L-64.5462 37.2545L-64.3676 37.4854L-64.0998 37.6933L-63.9212 37.9012L-63.7426 38.109L-63.564 38.3169L-63.3854 38.5248L-63.1176 38.7326L-62.939 38.9405L-62.7604 39.1484L-62.5818 39.3331L-62.4032 39.5179L-62.2247 39.7027L-61.9568 39.8874L-61.7782 40.0491L-61.5996 40.2339L-61.421 40.3956L-61.2424 40.5341L-60.9746 40.6727L-60.796 40.8113L-60.6174 40.9268L-60.4388 41.0653L-60.2602 41.1577L-60.0817 41.2501L-59.8138 41.3425L-59.6352 41.4349L-59.4566 41.5042L-59.278 41.5504L-59.0995 41.5966L-58.9209 41.6428L-58.653 41.6658H-58.4744H-58.2958H-58.1172L-57.9387 41.6428L-57.6708 41.6197L-57.4922 41.5735L-57.3136 41.5273L-57.135 41.458L-56.9565 41.3887L-56.7779 41.2963L-56.51 41.2039L-56.3314 41.1115L-56.1528 40.9961L-55.9743 40.8575L-55.7957 40.7189L-55.5278 40.5803L-55.3492 40.4418L-55.1706 40.2801L-54.992 40.0953L-54.8135 39.9336L-54.6349 39.7489L-54.367 39.5641L-54.1884 39.3562L-54.0098 39.1715L-53.8313 38.9636L-53.6527 38.7557L-53.4741 38.5248L-53.2062 38.3169L-53.0276 38.0859L-52.8491 37.855L-52.6705 37.624L-52.4919 37.4162L-52.224 37.1852L-52.0454 36.9542L-51.8668 36.7233L-51.6883 36.4923L-51.5097 36.2613L-51.3311 36.0304L-51.0632 35.8225L-50.8846 35.5916L-50.7061 35.3837L-50.5275 35.1527L-50.3489 34.9449L-50.081 34.7601L-49.9024 34.5522L-49.7239 34.3675L-49.5453 34.1827L-49.3667 33.9979L-49.1881 33.8362L-48.9202 33.6746L-48.7416 33.536L-48.5631 33.3743L-48.3845 33.2588L-48.2059 33.1203L-48.0273 33.0048L-47.7594 32.9124L-47.5809 32.82L-47.4023 32.7276L-47.2237 32.6583L-47.0451 32.6122L-46.7772 32.5429L-46.5987 32.5198L-46.4201 32.4967L-46.2415 32.4736H-46.0629L-45.8843 32.4967L-45.6164 32.5198L-45.4379 32.5429L-45.2593 32.5891L-45.0807 32.6583L-44.9021 32.7276L-44.7235 32.7969L-44.4557 32.8893L-44.2771 33.0048L-44.0985 33.1203L-43.9199 33.2357L-43.7413 33.3743L-43.4735 33.536L-43.2949 33.6746L-43.1163 33.8593L-42.9377 34.021L-42.7591 34.2058L-42.5805 34.3906L-42.3127 34.5984L-42.1341 34.8063L-41.9555 35.0142L-41.7769 35.222L-41.5983 35.453L-41.3305 35.6839L-41.1519 35.9149L-40.9733 36.169L-40.7947 36.3999L-40.6161 36.654L-40.4375 36.8849L-40.1697 37.139L-39.9911 37.3931L-39.8125 37.6471L-39.6339 37.8781L-39.4553 38.1321L-39.2768 38.3862L-39.0089 38.6172L-38.8303 38.8712L-38.6517 39.1022L-38.4731 39.3331L-38.2946 39.5641L-38.0267 39.7951L-37.8481 40.0029L-37.6695 40.2339L-37.4909 40.4187L-37.3123 40.6265L-37.1338 40.8113L-36.8659 40.9961L-36.6873 41.1808L-36.5087 41.3425L-36.3301 41.4811L-36.1516 41.6428L-35.8837 41.7582L-35.7051 41.8968L-35.5265 42.0123L-35.3479 42.1047L-35.1694 42.1971L-34.9908 42.2663L-34.7229 42.3356L-34.5443 42.3818L-34.3657 42.4049L-34.1871 42.428L-34.0086 42.4511H-33.83L-33.5621 42.428L-33.3835 42.4049L-33.2049 42.3587L-33.0264 42.3125L-32.8478 42.2433L-32.5799 42.174L-32.4013 42.0816L-32.2227 41.9661L-32.0442 41.8506L-31.8656 41.7351L-31.687 41.5966L-31.4191 41.4349L-31.2405 41.2732L-31.0619 41.1115L-30.8834 40.9268L-30.7048 40.742L-30.5262 40.5341L-30.2583 40.3263L-30.0797 40.0953L-29.9012 39.8643L-29.7226 39.6334L-29.544 39.4024L-29.2761 39.1484L-29.0975 38.8943L-28.919 38.6402L-28.7404 38.3862L-28.5618 38.109L-28.3832 37.8319L-28.1153 37.5778L-27.9367 37.3007L-27.7582 37.0235L-27.5796 36.7464L-27.401 36.4692L-27.1331 36.1921L-26.9545 35.938L-26.776 35.6608L-26.5974 35.3837L-26.4188 35.1296L-26.2402 34.8756L-25.9723 34.6215L-25.7938 34.3675L-25.6152 34.1365L-25.4366 33.9055L-25.258 33.6746L-25.0794 33.4667L-24.8116 33.2588L-24.633 33.051L-24.4544 32.8662L-24.2758 32.6814L-24.0972 32.5198L-23.8293 32.3581L-23.6508 32.1964L-23.4722 32.0809L-23.2936 31.9424L-23.115 31.85L-22.9364 31.7576L-22.6686 31.6652L-22.49 31.5959L-22.3114 31.5497L-22.1328 31.5035L-21.9542 31.4804L-21.6864 31.4573H-21.5078L-21.3292 31.4804L-21.1506 31.5266L-20.972 31.5728L-20.7934 31.619L-20.5256 31.6883L-20.347 31.7807L-20.1684 31.8962L-19.9898 32.0117L-19.8112 32.1502L-19.6326 32.2888L-19.3648 32.4505L-19.1862 32.6122L-19.0076 32.7969L-18.829 32.9817L-18.6504 33.1896L-18.3826 33.4205L-18.204 33.6284L-18.0254 33.8824L-17.8468 34.1134L-17.6682 34.3675L-17.4897 34.6446L-17.2218 34.9218L-17.0432 35.1989L-16.8646 35.4761L-16.686 35.7763L-16.5074 36.0535L-16.2396 36.3537L-16.061 36.654L-15.8824 36.9773L-15.7038 37.2776L-15.5252 37.5778L-15.3467 37.9012L-15.0788 38.2014L-14.9002 38.5017L-14.7216 38.825L-14.543 39.1253L-14.3645 39.4255L-14.1859 39.7258L-13.918 40.0029L-13.7394 40.3032L-13.5608 40.5803L-13.3823 40.8344L-13.2037 41.1115L-12.9358 41.3656L-12.7572 41.6197L-12.5786 41.8506L-12.4 42.0816L-12.2215 42.2894L-12.0429 42.4973L-11.775 42.6821L-11.5964 42.8668L-11.4178 43.0285L-11.2393 43.1671L-11.0607 43.3057L-10.8821 43.4443L-10.6142 43.5366L-10.4356 43.629L-10.2571 43.7214L-10.0785 43.7676L-9.89989 43.8138L-9.63201 43.86H-9.45343H-9.27485L-9.09626 43.8369L-8.91768 43.7907L-8.7391 43.7445L-8.47122 43.6752L-8.29264 43.5828L-8.11406 43.4904L-7.93547 43.3519L-7.75689 43.2364L-7.48902 43.0747L-7.31043 42.913L-7.13185 42.7283L-6.95327 42.5204L-6.77469 42.3125L-6.5961 42.0816L-6.32823 41.8506L-6.14965 41.5966L-5.97106 41.3425L-5.79248 41.0653L-5.6139 40.7882L-5.43531 40.4879L-5.16744 40.1646L-4.98886 39.8643L-4.81027 39.541L-4.63169 39.1946L-4.45311 38.8712L-4.18524 38.5248L-4.00665 38.1783L-3.82807 37.8088L-3.64949 37.4623L-3.4709 37.0928L-3.29232 36.7464L-3.02445 36.3768L-2.84586 36.0073L-2.66728 35.6608L-2.4887 35.2913L-2.31012 34.9449L-2.04224 34.5984L-1.86366 34.2289L-1.68508 33.9055L-1.50649 33.5591L-1.32791 33.2357L-1.14933 32.9124L-0.881453 32.5891L-0.70287 32.2888L-0.524287 32.0117L-0.345704 31.7114L-0.167122 31.4573L0.0114612 31.2033L0.279335 30.9492L0.457918 30.7183L0.636501 30.5104L0.815084 30.3025L0.993667 30.1409L1.26154 29.9561L1.44012 29.8175L1.61871 29.6789L1.79729 29.5866L1.97587 29.4711L2.15445 29.4018L2.42233 29.3556L2.60091 29.3094H2.77949H2.95808L3.13666 29.3325L3.40453 29.3787L3.58312 29.4249L3.7617 29.5173L3.94028 29.6097L4.11887 29.7482L4.29745 29.8868L4.56532 30.0485L4.74391 30.2332L4.92249 30.4411L5.10107 30.649L5.27965 30.903L5.45824 31.1571L5.72611 31.4342L5.90469 31.7114L6.08328 32.0117L6.26186 32.335L6.44044 32.6814L6.70832 33.0279L6.8869 33.3974L7.06548 33.767L7.24407 34.1596L7.42265 34.5753L7.60123 34.968L7.86911 35.4068L8.04769 35.8225L8.22627 36.2613L8.40485 36.7002L8.58344 37.1621L8.76202 37.6009L9.02989 38.0628L9.20848 38.5248L9.38706 38.9867L9.56564 39.4255L9.74422 39.8874L10.0121 40.3494L10.1907 40.8113L10.3693 41.2501L10.5478 41.6889L10.7264 42.1278L10.905 42.5435L11.1729 42.9592L11.3515 43.375L11.5301 43.7676L11.7086 44.1602L11.8872 44.5298L12.1551 44.8993L12.3337 45.2227L12.5123 45.546L12.6908 45.8693L12.8694 46.1465L13.048 46.4237L13.3159 46.6777L13.4945 46.9087L13.673 47.1165L13.8516 47.3013L14.0302 47.463L14.2088 47.6016L14.4767 47.717L14.6553 47.8094L14.8338 47.8556L15.0124 47.9018L15.191 47.9249L15.4589 47.9018L15.6375 47.8556L15.816 47.7863L15.9946 47.6939L16.1732 47.5785L16.3518 47.4168L16.6197 47.232L16.7982 47.0242L16.9768 46.7932L17.1554 46.5391L17.334 46.2389L17.6019 45.9155L17.7805 45.5691L17.959 45.1996L18.1376 44.8069L18.3162 44.3912L18.4948 43.9293L18.7627 43.4673L18.9412 42.9592L19.1198 42.4511L19.2984 41.8968L19.477 41.3425L19.6556 40.7651L19.9234 40.1646L20.102 39.541L20.2806 38.8943L20.4592 38.2245L20.6378 37.5547L20.9057 36.8618L21.0842 36.169L21.2628 35.453L21.4414 34.7139L21.62 33.9979L21.7986 33.2357L22.0664 32.4967L22.245 31.7345L22.4236 30.9723L22.6022 30.1871L22.7808 29.4249L22.9594 28.6627L23.2272 27.8774L23.4058 27.1153L23.5844 26.3531L23.763 25.5909L23.9416 24.8287L24.2094 24.0897L24.388 23.3506L24.5666 22.6115L24.7452 21.8955L24.9238 21.1796L25.1023 20.4867L25.3702 19.8169L25.5488 19.1471L25.7274 18.5235L25.906 17.8999L26.0846 17.2763L26.3524 16.6989L26.531 16.1446L26.7096 15.5903L26.8882 15.0822L27.0668 14.5971L27.2453 14.1352L27.5132 13.6964L27.6918 13.2807L27.8704 12.9111L28.049 12.5647L28.2275 12.2413L28.4061 11.9411L28.674 11.687L28.8526 11.4561L29.0312 11.2482L29.2098 11.0865L29.3883 10.971L29.6562 10.8556L29.8348 10.7863L30.0134 10.7632H30.192L30.3705 10.7863L30.5491 10.8556L30.817 10.971L30.9956 11.0865L31.1742 11.2482L31.3527 11.4561L31.5313 11.687L31.7992 11.9411L31.9778 12.2413L32.1564 12.5647L32.335 12.9111L32.5135 13.2807L32.6921 13.6964L32.96 14.1352L33.1386 14.5971L33.3172 15.0822L33.4957 15.5903L33.6743 16.1446L33.8529 16.6989L34.1208 17.2763L34.2994 17.8999L34.4779 18.5235L34.6565 19.1471L34.8351 19.8169L35.103 20.4867L35.2816 21.1796L35.4602 21.8955L35.6387 22.6115L35.8173 23.3506L35.9959 24.0897L36.2638 24.8287L36.4424 25.5909L36.6209 26.3531L36.7995 27.1153L36.9781 27.8774L37.246 28.6627L37.4246 29.4249L37.6031 30.1871L37.7817 30.9723L37.9603 31.7345L38.1389 32.4967L38.4068 33.2357L38.5853 33.9979L38.7639 34.7139L38.9425 35.453L39.1211 36.169L39.2997 36.8618L39.5676 37.5547L39.7461 38.2245L39.9247 38.8943L40.1033 39.541L40.2819 40.1646L40.5498 40.7651L40.7283 41.3425L40.9069 41.8968L41.0855 42.4511L41.2641 42.9592L41.4427 43.4673L41.7105 43.9293L41.8891 44.3912L42.0677 44.8069L42.2463 45.1996L42.4249 45.5691L42.6035 45.9155L42.8713 46.2389L43.0499 46.5391L43.2285 46.7932L43.4071 47.0242L43.5857 47.232L43.8535 47.4168L44.0321 47.5785L44.2107 47.6939L44.3893 47.7863L44.5679 47.8556L44.7465 47.9018L45.0143 47.9249L45.1929 47.9018L45.3715 47.8556L45.5501 47.8094L45.7287 47.717L45.9965 47.6016L46.1751 47.463L46.3537 47.3013L46.5323 47.1165L46.7109 46.9087L46.8895 46.6777L47.1573 46.4237L47.3359 46.1465L47.5145 45.8693L47.6931 45.546L47.8717 45.2227L48.0502 44.8993L48.3181 44.5298L48.4967 44.1602L48.6753 43.7676L48.8539 43.375L49.0324 42.9592L49.3003 42.5435L49.4789 42.1278L49.6575 41.6889L49.8361 41.2501L50.0147 40.8113L50.1932 40.3494L50.4611 39.8874L50.6397 39.4255L50.8183 38.9867L50.9969 38.5248L51.1754 38.0628L51.4433 37.6009L51.6219 37.1621L51.8005 36.7002L51.9791 36.2613L52.1576 35.8225L52.3362 35.4068L52.6041 34.968L52.7827 34.5753L52.9613 34.1596L53.1398 33.767L53.3184 33.3974L53.497 33.0279L53.7649 32.6814L53.9435 32.335L54.1221 32.0117L54.3006 31.7114L54.4792 31.4342L54.7471 31.1571L54.9257 30.903L55.1043 30.649L55.2828 30.4411L55.4614 30.2332L55.64 30.0485L55.9079 29.8868L56.0865 29.7482L56.265 29.6097L56.4436 29.5173L56.6222 29.4249L56.8008 29.3787L57.0687 29.3325L57.2473 29.3094H57.4258H57.6044L57.783 29.3556L58.0509 29.4018L58.2295 29.4711L58.408 29.5866L58.5866 29.6789L58.7652 29.8175L58.9438 29.9561L59.2117 30.1409L59.3902 30.3025L59.5688 30.5104L59.7474 30.7183L59.926 30.9492L60.1939 31.2033L60.3725 31.4573L60.551 31.7114L60.7296 32.0117L60.9082 32.2888L61.0868 32.5891L61.3547 32.9124L61.5332 33.2357L61.7118 33.5591L61.8904 33.9055L62.069 34.2289L62.2476 34.5984L62.5154 34.9449L62.694 35.2913L62.8726 35.6608L63.0512 36.0073L63.2298 36.3768L63.4977 36.7464L63.6762 37.0928L63.8548 37.4623L64.0334 37.8088L64.212 38.1783L64.3906 38.5248L64.6584 38.8712L64.837 39.1946L65.0156 39.541L65.1942 39.8643L65.3728 40.1646L65.6406 40.4879L65.8192 40.7882L65.9978 41.0653L66.1764 41.3425L66.355 41.5966L66.5336 41.8506L66.8014 42.0816L66.98 42.3125L67.1586 42.5204L67.3372 42.7283L67.5158 42.913L67.6943 43.0747L67.9622 43.2364L68.1408 43.3519L68.3194 43.4904L68.498 43.5828L68.6766 43.6752L68.9444 43.7445L69.123 43.7907L69.3016 43.8369L69.4802 43.86H69.6588H69.8373L70.1052 43.8138L70.2838 43.7676L70.4624 43.7214L70.641 43.629L70.8195 43.5366L71.0874 43.4443L71.266 43.3057L71.4446 43.1671L71.6232 43.0285L71.8018 42.8668L71.9803 42.6821L72.2482 42.4973L72.4268 42.2894L72.6054 42.0816L72.784 41.8506L72.9625 41.6197L73.1411 41.3656L73.409 41.1115L73.5876 40.8344L73.7662 40.5803L73.9447 40.3032L74.1233 40.0029L74.3912 39.7258L74.5698 39.4255L74.7484 39.1253L74.927 38.825L75.1055 38.5017L75.2841 38.2014L75.552 37.9012L75.7306 37.5778L75.9092 37.2776L76.0877 36.9773L76.2663 36.654L76.4449 36.3537L76.7128 36.0535L76.8914 35.7763L77.0699 35.4761L77.2485 35.1989L77.4271 34.9218L77.695 34.6446L77.8736 34.3675L78.0522 34.1134L78.2307 33.8824L78.4093 33.6284L78.5879 33.4205L78.8558 33.1896L79.0344 32.9817L79.2129 32.7969L79.3915 32.6122L79.5701 32.4505L79.838 32.2888L80.0166 32.1502L80.1951 32.0117L80.3737 31.8962L80.5523 31.7807L80.7309 31.6883L80.9988 31.619L81.1774 31.5728L81.3559 31.5266L81.5345 31.4804L81.7131 31.4573H81.8917L82.1596 31.4804L82.3381 31.5035L82.5167 31.5497L82.6953 31.5959L82.8739 31.6652L83.1418 31.7576L83.3203 31.85L83.4989 31.9424L83.6775 32.0809L83.8561 32.1964L84.0347 32.3581L84.3026 32.5198L84.4811 32.6814L84.6597 32.8662L84.8383 33.051L85.0169 33.2588L85.2848 33.4667L85.4633 33.6746L85.6419 33.9055L85.8205 34.1365L85.9991 34.3675L86.1777 34.6215L86.4455 34.8756L86.6241 35.1296L86.8027 35.3837L86.9813 35.6608L87.1599 35.938L87.3385 36.1921L87.6063 36.4692L87.7849 36.7464L87.9635 37.0235L88.1421 37.3007L88.3207 37.5778L88.5885 37.8319L88.7671 38.109L88.9457 38.3862L89.1243 38.6402L89.3029 38.8943L89.4815 39.1484L89.7493 39.4024L89.9279 39.6334L90.1065 39.8643L90.2851 40.0953L90.4637 40.3263L90.7315 40.5341L90.9101 40.742L91.0887 40.9268L91.2673 41.1115L91.4459 41.2732L91.6244 41.4349L91.8923 41.5966L92.0709 41.7351L92.2495 41.8506L92.4281 41.9661L92.6067 42.0816L92.7852 42.174L93.0531 42.2433L93.2317 42.3125L93.4103 42.3587L93.5889 42.4049L93.7674 42.428L94.0353 42.4511H94.2139L94.3925 42.428L94.5711 42.4049L94.7496 42.3818L94.9282 42.3356L95.1961 42.2663L95.3747 42.1971L95.5533 42.1047L95.7319 42.0123L95.9104 41.8968L96.089 41.7582L96.3569 41.6428L96.5355 41.4811L96.7141 41.3425L96.8926 41.1808L97.0712 40.9961L97.3391 40.8113L97.5177 40.6265L97.6963 40.4187L97.8748 40.2339L98.0534 40.0029L98.232 39.7951L98.4999 39.5641L98.6785 39.3331L98.8571 39.1022L99.0356 38.8712L99.2142 38.6172L99.4821 38.3862L99.6607 38.1321L99.8393 37.8781L100.018 37.6471L100.196 37.3931L100.375 37.139L100.643 36.8849L100.821 36.654L101 36.3999L101.179 36.169L101.357 35.9149L101.536 35.6839L101.804 35.453L101.982 35.222L102.161 35.0142L102.339 34.8063L102.518 34.5984L102.786 34.3906L102.964 34.2058L103.143 34.021L103.322 33.8593L103.5 33.6746L103.679 33.536L103.947 33.3743L104.125 33.2357L104.304 33.1203L104.482 33.0048L104.661 32.8893L104.929 32.7969L105.107 32.7276L105.286 32.6583L105.465 32.5891L105.643 32.5429L105.822 32.5198L106.09 32.4967L106.268 32.4736H106.447L106.625 32.4967L106.804 32.5198L106.983 32.5429L107.25 32.6122L107.429 32.6583L107.608 32.7276L107.786 32.82L107.965 32.9124L108.233 33.0048L108.411 33.1203L108.59 33.2588L108.768 33.3743L108.947 33.536L109.126 33.6746L109.393 33.8362L109.572 33.9979L109.751 34.1827L109.929 34.3675L110.108 34.5522L110.286 34.7601L110.554 34.9449L110.733 35.1527L110.911 35.3837L111.09 35.5916L111.269 35.8225L111.536 36.0304L111.715 36.2613L111.894 36.4923L112.072 36.7233L112.251 36.9542L112.429 37.1852L112.697 37.4162L112.876 37.624L113.054 37.855L113.233 38.0859L113.412 38.3169L113.679 38.5248L113.858 38.7557L114.037 38.9636L114.215 39.1715L114.394 39.3562L114.572 39.5641L114.84 39.7489L115.019 39.9336L115.197 40.0953L115.376 40.2801L115.555 40.4418L115.733 40.5803L116.001 40.7189L116.18 40.8575L116.358 40.9961L116.537 41.1115L116.715 41.2039L116.983 41.2963L117.162 41.3887L117.34 41.458L117.519 41.5273L117.698 41.5735L117.876 41.6197L118.144 41.6428L118.323 41.6658H118.501H118.68H118.858L119.126 41.6428L119.305 41.5966L119.483 41.5504L119.662 41.5042L119.841 41.4349L120.019 41.3425L120.287 41.2501L120.466 41.1577L120.644 41.0653L120.823 40.9268L121.001 40.8113L121.18 40.6727L121.448 40.5341L121.626 40.3956L121.805 40.2339L121.984 40.0491L122.162 39.8874L122.43 39.7027L122.609 39.5179L122.787 39.3331L122.966 39.1484L123.144 38.9405L123.323 38.7326L123.591 38.5248L123.769 38.3169L123.948 38.109L124.127 37.9012L124.305 37.6933L124.573 37.4854L124.752 37.2545L124.93 37.0466L125.109 36.8387L125.287 36.6309L125.466 36.423L125.734 36.2152L125.912 36.0073L126.091 35.7994L126.27 35.6147L126.448 35.4068L126.627 35.222L126.895 35.0372L127.073 34.8756L127.252 34.6908" stroke="#FF0000" stroke-width="2" stroke-linejoin="bevel"/>
<path d="M-67.0464 34.0567L-66.8678 33.9173L-66.6892 33.8012L-66.4213 33.685L-66.2428 33.5921L-66.0642 33.4991L-65.8856 33.4062L-65.707 33.3365L-65.5284 33.2668L-65.2606 33.1971L-65.082 33.1506L-64.9034 33.1274L-64.7248 33.1042L-64.5462 33.0809H-64.3676H-64.0998L-63.9212 33.1042L-63.7426 33.1506L-63.564 33.1739L-63.3854 33.2203L-63.1176 33.29L-62.939 33.3597L-62.7604 33.4527L-62.5818 33.5456L-62.4032 33.6385L-62.2247 33.7547L-61.9568 33.8709L-61.7782 34.0103L-61.5996 34.1497L-61.421 34.2891L-61.2424 34.4517L-60.9746 34.6143L-60.796 34.777L-60.6174 34.9628L-60.4388 35.1487L-60.2602 35.3346L-60.0817 35.5205L-59.8138 35.7296L-59.6352 35.9387L-59.4566 36.1478L-59.278 36.3569L-59.0995 36.566L-58.9209 36.7751L-58.653 37.0074L-58.4744 37.2165L-58.2958 37.4488L-58.1172 37.6812L-57.9387 37.8903L-57.6708 38.1226L-57.4922 38.3317L-57.3136 38.5641L-57.135 38.7732L-56.9565 38.9823L-56.7779 39.1914L-56.51 39.4005L-56.3314 39.6096L-56.1528 39.7954L-55.9743 40.0045L-55.7957 40.1672L-55.5278 40.353L-55.3492 40.5389L-55.1706 40.7015L-54.992 40.8409L-54.8135 41.0036L-54.6349 41.143L-54.367 41.2592L-54.1884 41.3753L-54.0098 41.4915L-53.8313 41.6077L-53.6527 41.6774L-53.4741 41.7703L-53.2062 41.84L-53.0276 41.8865L-52.8491 41.9329L-52.6705 41.9794L-52.4919 42.0026L-52.224 42.0259H-52.0454L-51.8668 42.0026L-51.6883 41.9794L-51.5097 41.9562L-51.3311 41.9097L-51.0632 41.8632L-50.8846 41.7935L-50.7061 41.7006L-50.5275 41.6077L-50.3489 41.5147L-50.081 41.3986L-49.9024 41.2824L-49.7239 41.143L-49.5453 41.0036L-49.3667 40.8642L-49.1881 40.7015L-48.9202 40.5389L-48.7416 40.353L-48.5631 40.1672L-48.3845 39.9813L-48.2059 39.7954L-48.0273 39.5863L-47.7594 39.3772L-47.5809 39.1449L-47.4023 38.9358L-47.2237 38.7035L-47.0451 38.4711L-46.7772 38.2388L-46.5987 38.0064L-46.4201 37.7741L-46.2415 37.5418L-46.0629 37.2862L-45.8843 37.0539L-45.6164 36.8215L-45.4379 36.566L-45.2593 36.3336L-45.0807 36.1013L-44.9021 35.869L-44.7235 35.6366L-44.4557 35.4043L-44.2771 35.1952L-44.0985 34.9628L-43.9199 34.7537L-43.7413 34.5446L-43.4735 34.3588L-43.2949 34.1729L-43.1163 33.987L-42.9377 33.8012L-42.7591 33.6385L-42.5805 33.4759L-42.3127 33.3365L-42.1341 33.1971L-41.9555 33.0577L-41.7769 32.9415L-41.5983 32.8254L-41.3305 32.7324L-41.1519 32.6395L-40.9733 32.5698L-40.7947 32.5233L-40.6161 32.4536L-40.4375 32.4304L-40.1697 32.4071L-39.9911 32.3839H-39.8125L-39.6339 32.4071L-39.4553 32.4304L-39.2768 32.4536L-39.0089 32.5001L-38.8303 32.5698L-38.6517 32.6395L-38.4731 32.7324L-38.2946 32.8254L-38.0267 32.9415L-37.8481 33.0577L-37.6695 33.1971L-37.4909 33.3365L-37.3123 33.4991L-37.1338 33.6618L-36.8659 33.8244L-36.6873 34.0103L-36.5087 34.1961L-36.3301 34.4052L-36.1516 34.6143L-35.8837 34.8234L-35.7051 35.0558L-35.5265 35.2881L-35.3479 35.5205L-35.1694 35.7528L-34.9908 36.0084L-34.7229 36.2639L-34.5443 36.5195L-34.3657 36.7751L-34.1871 37.0306L-34.0086 37.2862L-33.83 37.5418L-33.5621 37.8206L-33.3835 38.0761L-33.2049 38.3317L-33.0264 38.5873L-32.8478 38.8429L-32.5799 39.0984L-32.4013 39.354L-32.2227 39.6096L-32.0442 39.8419L-31.8656 40.0742L-31.687 40.3066L-31.4191 40.5389L-31.2405 40.748L-31.0619 40.9571L-30.8834 41.1662L-30.7048 41.3521L-30.5262 41.538L-30.2583 41.7238L-30.0797 41.8865L-29.9012 42.0259L-29.7226 42.1653L-29.544 42.3047L-29.2761 42.4208L-29.0975 42.537L-28.919 42.6299L-28.7404 42.6996L-28.5618 42.7693L-28.3832 42.8158L-28.1153 42.8623L-27.9367 42.8855L-27.7582 42.9087H-27.5796L-27.401 42.8855L-27.1331 42.8623L-26.9545 42.839L-26.776 42.7693L-26.5974 42.6996L-26.4188 42.6299L-26.2402 42.537L-25.9723 42.4208L-25.7938 42.3047L-25.6152 42.1653L-25.4366 42.0259L-25.258 41.8632L-25.0794 41.7006L-24.8116 41.5147L-24.633 41.3289L-24.4544 41.1198L-24.2758 40.9107L-24.0972 40.6783L-23.8293 40.446L-23.6508 40.2136L-23.4722 39.9581L-23.2936 39.7025L-23.115 39.4469L-22.9364 39.1681L-22.6686 38.9126L-22.49 38.6338L-22.3114 38.355L-22.1328 38.0529L-21.9542 37.7741L-21.6864 37.4721L-21.5078 37.1933L-21.3292 36.8912L-21.1506 36.6124L-20.972 36.3104L-20.7934 36.0316L-20.5256 35.7296L-20.347 35.4508L-20.1684 35.1719L-19.9898 34.8931L-19.8112 34.6376L-19.6326 34.3588L-19.3648 34.1032L-19.1862 33.8476L-19.0076 33.6153L-18.829 33.383L-18.6504 33.1506L-18.3826 32.9415L-18.204 32.7324L-18.0254 32.5233L-17.8468 32.3374L-17.6682 32.1748L-17.4897 32.0122L-17.2218 31.8728L-17.0432 31.7334L-16.8646 31.6172L-16.686 31.501L-16.5074 31.4081L-16.2396 31.3384L-16.061 31.2687L-15.8824 31.2222L-15.7038 31.199L-15.5252 31.1758H-15.3467L-15.0788 31.199L-14.9002 31.2222L-14.7216 31.2687L-14.543 31.3384L-14.3645 31.4081L-14.1859 31.501L-13.918 31.594L-13.7394 31.7101L-13.5608 31.8495L-13.3823 32.0122L-13.2037 32.1748L-12.9358 32.3374L-12.7572 32.5466L-12.5786 32.7324L-12.4 32.9648L-12.2215 33.1971L-12.0429 33.4294L-11.775 33.685L-11.5964 33.9406L-11.4178 34.2194L-11.2393 34.4982L-11.0607 34.777L-10.8821 35.079L-10.6142 35.3811L-10.4356 35.6831L-10.2571 36.0084L-10.0785 36.3336L-9.89989 36.6589L-9.63201 36.9842L-9.45343 37.3094L-9.27485 37.6579L-9.09626 37.9832L-8.91768 38.3317L-8.7391 38.657L-8.47122 38.9823L-8.29264 39.3075L-8.11406 39.6328L-7.93547 39.9581L-7.75689 40.2833L-7.48902 40.6086L-7.31043 40.9107L-7.13185 41.2127L-6.95327 41.4915L-6.77469 41.7703L-6.5961 42.0491L-6.32823 42.3279L-6.14965 42.5602L-5.97106 42.8158L-5.79248 43.0481L-5.6139 43.2572L-5.43531 43.4663L-5.16744 43.6522L-4.98886 43.8149L-4.81027 43.9775L-4.63169 44.1169L-4.45311 44.2563L-4.18524 44.3725L-4.00665 44.4654L-3.82807 44.5351L-3.64949 44.6048L-3.4709 44.6513L-3.29232 44.6745H-3.02445H-2.84586L-2.66728 44.6513L-2.4887 44.6048L-2.31012 44.5351L-2.04224 44.4422L-1.86366 44.3492L-1.68508 44.2331L-1.50649 44.0937L-1.32791 43.931L-1.14933 43.7684L-0.881453 43.5825L-0.70287 43.3734L-0.524287 43.1643L-0.345704 42.932L-0.167122 42.6764L0.0114612 42.3976L0.279335 42.1188L0.457918 41.84L0.636501 41.538L0.815084 41.2127L0.993667 40.8874L1.26154 40.5389L1.44012 40.1904L1.61871 39.8419L1.79729 39.4702L1.97587 39.0984L2.15445 38.7035L2.42233 38.3085L2.60091 37.9135L2.77949 37.5185L2.95808 37.1236L3.13666 36.7286L3.40453 36.3104L3.58312 35.9154L3.7617 35.5205L3.94028 35.1022L4.11887 34.7073L4.29745 34.3123L4.56532 33.9173L4.74391 33.5456L4.92249 33.1506L5.10107 32.7789L5.27965 32.4304L5.45824 32.0586L5.72611 31.7334L5.90469 31.3849L6.08328 31.0596L6.26186 30.7576L6.44044 30.4788L6.70832 30.2L6.8869 29.9212L7.06548 29.6656L7.24407 29.4332L7.42265 29.2241L7.60123 29.0383L7.86911 28.8524L8.04769 28.6898L8.22627 28.5504L8.40485 28.4342L8.58344 28.3413L8.76202 28.2716L9.02989 28.2251L9.20848 28.1786H9.38706H9.56564L9.74422 28.2251L10.0121 28.2716L10.1907 28.3645L10.3693 28.4574L10.5478 28.5736L10.7264 28.7362L10.905 28.8989L11.1729 29.0847L11.3515 29.2938L11.5301 29.5494L11.7086 29.805L11.8872 30.0838L12.1551 30.3626L12.3337 30.6879L12.5123 31.0364L12.6908 31.3849L12.8694 31.7566L13.048 32.1516L13.3159 32.5698L13.4945 32.988L13.673 33.4294L13.8516 33.8941L14.0302 34.3588L14.2088 34.8467L14.4767 35.3346L14.6553 35.8457L14.8338 36.3569L15.0124 36.8912L15.191 37.4256L15.4589 37.96L15.6375 38.5176L15.816 39.0752L15.9946 39.6096L16.1732 40.1672L16.3518 40.748L16.6197 41.3056L16.7982 41.8632L16.9768 42.4208L17.1554 42.9552L17.334 43.5128L17.6019 44.0472L17.7805 44.5816L17.959 45.1159L18.1376 45.6503L18.3162 46.1614L18.4948 46.6494L18.7627 47.1373L18.9412 47.6019L19.1198 48.0666L19.2984 48.508L19.477 48.9262L19.6556 49.3445L19.9234 49.7394L20.102 50.1112L20.2806 50.4597L20.4592 50.7849L20.6378 51.087L20.9057 51.389L21.0842 51.6446L21.2628 51.8769L21.4414 52.1092L21.62 52.2951L21.7986 52.4578L22.0664 52.5972L22.245 52.7133L22.4236 52.8063L22.6022 52.8527L22.7808 52.8992H22.9594L23.2272 52.876L23.4058 52.8295L23.5844 52.7598L23.763 52.6436L23.9416 52.5275L24.2094 52.3648L24.388 52.179L24.5666 51.9698L24.7452 51.7143L24.9238 51.4587L25.1023 51.1567L25.3702 50.8546L25.5488 50.5061L25.7274 50.1344L25.906 49.7627L26.0846 49.3445L26.3524 48.903L26.531 48.4616L26.7096 47.9737L26.8882 47.4858L27.0668 46.9746L27.2453 46.4402L27.5132 45.8826L27.6918 45.325L27.8704 44.7442L28.049 44.1634L28.2275 43.5593L28.4061 42.932L28.674 42.3047L28.8526 41.6774L29.0312 41.0268L29.2098 40.3763L29.3883 39.7257L29.6562 39.052L29.8348 38.4014L30.0134 37.7276L30.192 37.0539L30.3705 36.4033L30.5491 35.7296L30.817 35.079L30.9956 34.4052L31.1742 33.7547L31.3527 33.1274L31.5313 32.4769L31.7992 31.8495L31.9778 31.2455L32.1564 30.6414L32.335 30.0373L32.5135 29.4565L32.6921 28.8989L32.96 28.3413L33.1386 27.8069L33.3172 27.2958L33.4957 26.8078L33.6743 26.3432L33.8529 25.8785L34.1208 25.4371L34.2994 25.0421L34.4779 24.6471L34.6565 24.2754L34.8351 23.9501L35.103 23.6248L35.2816 23.346L35.4602 23.0672L35.6387 22.8349L35.8173 22.6258L35.9959 22.4399L36.2638 22.2773L36.4424 22.1379L36.6209 22.045L36.7995 21.952L36.9781 21.9056L37.246 21.8823L37.4246 21.9056L37.6031 21.9288L37.7817 21.9985L37.9603 22.0682L38.1389 22.1844L38.4068 22.3238L38.5853 22.4864L38.7639 22.6955L38.9425 22.9046L39.1211 23.1369L39.2997 23.4157L39.5676 23.6945L39.7461 23.9966L39.9247 24.3451L40.1033 24.6936L40.2819 25.0653L40.5498 25.4371L40.7283 25.8553L40.9069 26.2735L41.0855 26.7381L41.2641 27.1796L41.4427 27.6675L41.7105 28.1322L41.8891 28.6433L42.0677 29.1544L42.2463 29.6656L42.4249 30.2L42.6035 30.7343L42.8713 31.2687L43.0499 31.8263L43.2285 32.3839L43.4071 32.9415L43.5857 33.4991L43.8535 34.0567L44.0321 34.6143L44.2107 35.1719L44.3893 35.7296L44.5679 36.2872L44.7465 36.8215L45.0143 37.3559L45.1929 37.8903L45.3715 38.4247L45.5501 38.9358L45.7287 39.4469L45.9965 39.9348L46.1751 40.4227L46.3537 40.8874L46.5323 41.3521L46.7109 41.7935L46.8895 42.235L47.1573 42.6299L47.3359 43.0249L47.5145 43.3966L47.6931 43.7684L47.8717 44.0937L48.0502 44.4189L48.3181 44.721L48.4967 44.9998L48.6753 45.2553L48.8539 45.4877L49.0324 45.6968L49.3003 45.8826L49.4789 46.0685L49.6575 46.2079L49.8361 46.3241L50.0147 46.4402L50.1932 46.51L50.4611 46.5797L50.6397 46.6029L50.8183 46.6261L50.9969 46.6029L51.1754 46.5797L51.4433 46.51L51.6219 46.4402L51.8005 46.3473L51.9791 46.2311L52.1576 46.0917L52.3362 45.9291L52.6041 45.7665L52.7827 45.5574L52.9613 45.3483L53.1398 45.1159L53.3184 44.8604L53.497 44.6048L53.7649 44.326L53.9435 44.024L54.1221 43.7219L54.3006 43.3966L54.4792 43.0714L54.7471 42.7229L54.9257 42.3744L55.1043 42.0026L55.2828 41.6309L55.4614 41.2592L55.64 40.8642L55.9079 40.4692L56.0865 40.0742L56.265 39.6793L56.4436 39.2843L56.6222 38.8661L56.8008 38.4711L57.0687 38.0761L57.2473 37.6579L57.4258 37.263L57.6044 36.868L57.783 36.473L58.0509 36.0781L58.2295 35.7063L58.408 35.3346L58.5866 34.9628L58.7652 34.5911L58.9438 34.2426L59.2117 33.9173L59.3902 33.5688L59.5688 33.2668L59.7474 32.9648L59.926 32.6627L60.1939 32.3839L60.3725 32.1283L60.551 31.8728L60.7296 31.6404L60.9082 31.4081L61.0868 31.199L61.3547 31.0131L61.5332 30.8505L61.7118 30.6879L61.8904 30.5717L62.069 30.4555L62.2476 30.3394L62.5154 30.2697L62.694 30.2L62.8726 30.1535L63.0512 30.1303L63.2298 30.107L63.4977 30.1303L63.6762 30.1535L63.8548 30.2L64.0334 30.2464L64.212 30.3394L64.3906 30.4323L64.6584 30.5485L64.837 30.6646L65.0156 30.804L65.1942 30.9667L65.3728 31.1525L65.6406 31.3384L65.8192 31.5243L65.9978 31.7566L66.1764 31.9889L66.355 32.2213L66.5336 32.4769L66.8014 32.7324L66.98 33.0112L67.1586 33.29L67.3372 33.5921L67.5158 33.8941L67.6943 34.1961L67.9622 34.4982L68.1408 34.8234L68.3194 35.1487L68.498 35.474L68.6766 35.7993L68.9444 36.1478L69.123 36.473L69.3016 36.7983L69.4802 37.1468L69.6588 37.4721L69.8373 37.7973L70.1052 38.1226L70.2838 38.4711L70.4624 38.7732L70.641 39.0984L70.8195 39.4005L71.0874 39.7025L71.266 40.0045L71.4446 40.3066L71.6232 40.5854L71.8018 40.8409L71.9803 41.1198L72.2482 41.3521L72.4268 41.6077L72.6054 41.84L72.784 42.0491L72.9625 42.2582L73.1411 42.4441L73.409 42.6299L73.5876 42.7926L73.7662 42.932L73.9447 43.0714L74.1233 43.1875L74.3912 43.3037L74.5698 43.3966L74.7484 43.4663L74.927 43.5128L75.1055 43.5593L75.2841 43.6057H75.552H75.7306L75.9092 43.5825L76.0877 43.5593L76.2663 43.5128L76.4449 43.4431L76.7128 43.3734L76.8914 43.2805L77.0699 43.1643L77.2485 43.0481L77.4271 42.932L77.695 42.7693L77.8736 42.6067L78.0522 42.4441L78.2307 42.2582L78.4093 42.0723L78.5879 41.8632L78.8558 41.6309L79.0344 41.4218L79.2129 41.1895L79.3915 40.9339L79.5701 40.6783L79.838 40.4227L80.0166 40.1672L80.1951 39.8884L80.3737 39.6096L80.5523 39.3308L80.7309 39.052L80.9988 38.7732L81.1774 38.4711L81.3559 38.1923L81.5345 37.8903L81.7131 37.6115L81.8917 37.3094L82.1596 37.0306L82.3381 36.7286L82.5167 36.4498L82.6953 36.171L82.8739 35.8922L83.1418 35.6134L83.3203 35.3578L83.4989 35.079L83.6775 34.8234L83.8561 34.5911L84.0347 34.3355L84.3026 34.1032L84.4811 33.8941L84.6597 33.685L84.8383 33.4759L85.0169 33.29L85.2848 33.1042L85.4633 32.9415L85.6419 32.7789L85.8205 32.6163L85.9991 32.5001L86.1777 32.3607L86.4455 32.2677L86.6241 32.1748L86.8027 32.0819L86.9813 32.0122L87.1599 31.9657L87.3385 31.9192L87.6063 31.896L87.7849 31.8728H87.9635L88.1421 31.896L88.3207 31.9192L88.5885 31.9657L88.7671 32.0122L88.9457 32.0819L89.1243 32.1748L89.3029 32.2677L89.4815 32.3607L89.7493 32.4769L89.9279 32.6163L90.1065 32.7557L90.2851 32.9183L90.4637 33.0809L90.7315 33.2436L90.9101 33.4294L91.0887 33.6153L91.2673 33.8244L91.4459 34.0335L91.6244 34.2426L91.8923 34.4749L92.0709 34.7073L92.2495 34.9396L92.4281 35.1952L92.6067 35.4275L92.7852 35.6831L93.0531 35.9387L93.2317 36.1942L93.4103 36.4498L93.5889 36.7286L93.7674 36.9842L94.0353 37.2397L94.2139 37.4953L94.3925 37.7741L94.5711 38.0297L94.7496 38.2853L94.9282 38.5408L95.1961 38.7964L95.3747 39.0287L95.5533 39.2843L95.7319 39.5166L95.9104 39.749L96.089 39.9581L96.3569 40.1904L96.5355 40.3995L96.7141 40.5854L96.8926 40.7712L97.0712 40.9571L97.3391 41.143L97.5177 41.3056L97.6963 41.445L97.8748 41.6077L98.0534 41.7238L98.232 41.8632L98.4999 41.9562L98.6785 42.0491L98.8571 42.142L99.0356 42.2117L99.2142 42.2814L99.4821 42.3279L99.6607 42.3744L99.8393 42.3976H100.018H100.196H100.375L100.643 42.3744L100.821 42.3279L101 42.2814L101.179 42.2117L101.357 42.142L101.536 42.0491L101.804 41.9562L101.982 41.84L102.161 41.7238L102.339 41.6077L102.518 41.4683L102.786 41.3056L102.964 41.1662L103.143 40.9804L103.322 40.8177L103.5 40.6318L103.679 40.446L103.947 40.2369L104.125 40.0278L104.304 39.8187L104.482 39.6096L104.661 39.3772L104.929 39.1449L105.107 38.9358L105.286 38.6802L105.465 38.4479L105.643 38.2156L105.822 37.9832L106.09 37.7276L106.268 37.4953L106.447 37.263L106.625 37.0074L106.804 36.7751L106.983 36.5427L107.25 36.3104L107.429 36.0781L107.608 35.869L107.786 35.6366L107.965 35.4275L108.233 35.2184L108.411 35.0093L108.59 34.8002L108.768 34.6143L108.947 34.4285L109.126 34.2658L109.393 34.08L109.572 33.9173L109.751 33.7779L109.929 33.6385L110.108 33.4991L110.286 33.383L110.554 33.2668L110.733 33.1739L110.911 33.0809L111.09 33.0112L111.269 32.9415L111.536 32.8951L111.715 32.8486L111.894 32.8021L112.072 32.7789H112.251H112.429H112.697L112.876 32.8021L113.054 32.8486L113.233 32.8951L113.412 32.9648L113.679 33.0345L113.858 33.1042L114.037 33.1971L114.215 33.29L114.394 33.4062L114.572 33.5224L114.84 33.6618L115.019 33.8012L115.197 33.9406L115.376 34.1032L115.555 34.2658L115.733 34.4285L116.001 34.6143L116.18 34.8002L116.358 34.9861L116.537 35.1952L116.715 35.3811L116.983 35.5902L117.162 35.7993L117.34 36.0084L117.519 36.2407L117.698 36.4498L117.876 36.6821L118.144 36.8912L118.323 37.1236L118.501 37.3327L118.68 37.565L118.858 37.7741L119.126 38.0064L119.305 38.2156L119.483 38.4479L119.662 38.657L119.841 38.8661L120.019 39.0752L120.287 39.2611L120.466 39.4702L120.644 39.656L120.823 39.8419L121.001 40.0045L121.18 40.1904L121.448 40.353L121.626 40.4924L121.805 40.6551L121.984 40.7945L122.162 40.9107L122.43 41.0501L122.609 41.143L122.787 41.2592L122.966 41.3521L123.144 41.4218L123.323 41.4915L123.591 41.5612L123.769 41.6077L123.948 41.6541L124.127 41.6774L124.305 41.7006H124.573H124.752H124.93L125.109 41.6774L125.287 41.6309L125.466 41.5844L125.734 41.538L125.912 41.4683L126.091 41.3986L126.27 41.3056L126.448 41.2127L126.627 41.0965L126.895 40.9804L127.073 40.8642L127.252 40.7248" stroke="#FF0000" stroke-width="2" stroke-linejoin="bevel"/>
</g>
</g>
<g clip-path="url(#clip2_74_8193)">
<path d="M3.60596 60.3584L63.766 60.3584" stroke="black" stroke-width="1.5" stroke-miterlimit="4.97494"/>
<path d="M3.62891 64.1449V60.48" stroke="black" stroke-width="1.5" stroke-miterlimit="4.97494"/>
<path d="M18.0288 64.1449V60.48" stroke="black" stroke-width="1.5" stroke-miterlimit="4.97494"/>
<path d="M32.4287 64.1449V60.48" stroke="black" stroke-width="1.5" stroke-miterlimit="4.97494"/>
<path d="M46.8286 64.1449V60.48" stroke="black" stroke-width="1.5" stroke-miterlimit="4.97494"/>
<path d="M61.2285 64.1449V60.48" stroke="black" stroke-width="1.5" stroke-miterlimit="4.97494"/>
<path d="M3.60596 60.3584L3.60597 0.198397" stroke="black" stroke-width="1.5" stroke-miterlimit="4.97494"/>
<path d="M-0.108848 60.48L3.52002 60.48" stroke="black" stroke-width="1.5" stroke-miterlimit="4.97494"/>
<path d="M-0.108848 46.0801L3.52002 46.0801" stroke="black" stroke-width="1.5" stroke-miterlimit="4.97494"/>
<path d="M-0.108848 31.6802L3.52002 31.6802" stroke="black" stroke-width="1.5" stroke-miterlimit="4.97494"/>
<path d="M-0.108848 17.2798L3.52002 17.2798" stroke="black" stroke-width="1.5" stroke-miterlimit="4.97494"/>
<path d="M-0.108848 2.87988L3.52002 2.87988" stroke="black" stroke-width="1.5" stroke-miterlimit="4.97494"/>
</g>
<defs>
<clipPath id="clip0_74_8193">
<rect width="54.4" height="54.4" fill="white" transform="translate(7.04004 2.56006)"/>
</clipPath>
<clipPath id="clip1_74_8193">
<rect width="54.4" height="44.6435" fill="white" transform="translate(7.04004 9.65576)"/>
</clipPath>
<clipPath id="clip2_74_8193">
<rect width="64" height="64" fill="white"/>
</clipPath>
</defs>
</svg>
