<svg width="214" height="214" viewBox="0 0 214 214" fill="none" xmlns="http://www.w3.org/2000/svg">
<g clip-path="url(#clip0_2026_1272)">
<rect x="1.5" y="1.5" width="211" height="211" rx="105.5" fill="#AFC6F0" stroke="#AFC6F0" stroke-width="3"/>
<g clip-path="url(#clip1_2026_1272)">
<path d="M-209.521 115.235L-208.962 115.812L-208.404 116.317L-207.567 116.895L-207.009 117.472L-206.451 118.122L-205.893 118.699L-205.335 119.349L-204.777 119.998L-203.94 120.648L-203.382 121.297L-202.824 121.947L-202.266 122.596L-201.708 123.246L-201.149 123.968L-200.312 124.617L-199.754 125.267L-199.196 125.916L-198.638 126.566L-198.08 127.216L-197.243 127.865L-196.685 128.515L-196.127 129.164L-195.569 129.742L-195.011 130.319L-194.453 130.897L-193.615 131.474L-193.057 131.979L-192.499 132.557L-191.941 133.062L-191.383 133.495L-190.546 133.928L-189.988 134.361L-189.43 134.722L-188.872 135.155L-188.314 135.444L-187.756 135.732L-186.919 136.021L-186.361 136.31L-185.802 136.526L-185.244 136.671L-184.686 136.815L-184.128 136.959L-183.291 137.032H-182.733H-182.175H-181.617L-181.059 136.959L-180.222 136.887L-179.664 136.743L-179.106 136.598L-178.548 136.382L-177.989 136.165L-177.431 135.877L-176.594 135.588L-176.036 135.299L-175.478 134.938L-174.92 134.505L-174.362 134.072L-173.525 133.639L-172.967 133.206L-172.409 132.701L-171.851 132.124L-171.293 131.618L-170.735 131.041L-169.897 130.464L-169.339 129.814L-168.781 129.237L-168.223 128.587L-167.665 127.937L-167.107 127.216L-166.27 126.566L-165.712 125.844L-165.154 125.123L-164.596 124.401L-164.038 123.751L-163.201 123.029L-162.643 122.308L-162.084 121.586L-161.526 120.864L-160.968 120.142L-160.41 119.421L-159.573 118.771L-159.015 118.049L-158.457 117.4L-157.899 116.678L-157.341 116.028L-156.504 115.451L-155.946 114.801L-155.388 114.224L-154.83 113.647L-154.271 113.069L-153.713 112.564L-152.876 112.059L-152.318 111.626L-151.76 111.121L-151.202 110.76L-150.644 110.327L-150.086 109.966L-149.249 109.677L-148.691 109.388L-148.133 109.1L-147.575 108.883L-147.017 108.739L-146.179 108.522L-145.621 108.45L-145.063 108.378L-144.505 108.306H-143.947L-143.389 108.378L-142.552 108.45L-141.994 108.522L-141.436 108.667L-140.878 108.883L-140.32 109.1L-139.762 109.316L-138.924 109.605L-138.366 109.966L-137.808 110.327L-137.25 110.687L-136.692 111.121L-135.855 111.626L-135.297 112.059L-134.739 112.636L-134.181 113.141L-133.623 113.719L-133.065 114.296L-132.228 114.946L-131.67 115.595L-131.111 116.245L-130.553 116.895L-129.995 117.616L-129.158 118.338L-128.6 119.06L-128.042 119.854L-127.484 120.576L-126.926 121.369L-126.368 122.091L-125.531 122.885L-124.973 123.679L-124.415 124.473L-123.857 125.195L-123.298 125.989L-122.74 126.783L-121.903 127.504L-121.345 128.298L-120.787 129.02L-120.229 129.742L-119.671 130.464L-118.834 131.185L-118.276 131.835L-117.718 132.557L-117.16 133.134L-116.602 133.784L-116.044 134.361L-115.206 134.938L-114.648 135.516L-114.09 136.021L-113.532 136.454L-112.974 136.959L-112.137 137.32L-111.579 137.753L-111.021 138.114L-110.463 138.403L-109.905 138.692L-109.347 138.908L-108.51 139.125L-107.952 139.269L-107.393 139.341L-106.835 139.413L-106.277 139.485H-105.719L-104.882 139.413L-104.324 139.341L-103.766 139.197L-103.208 139.052L-102.65 138.836L-101.813 138.619L-101.255 138.331L-100.697 137.97L-100.139 137.609L-99.5805 137.248L-99.0224 136.815L-98.1853 136.31L-97.6272 135.805L-97.0691 135.299L-96.5111 134.722L-95.953 134.144L-95.3949 133.495L-94.5578 132.845L-93.9997 132.124L-93.4417 131.402L-92.8836 130.68L-92.3255 129.958L-91.4884 129.164L-90.9304 128.37L-90.3723 127.577L-89.8142 126.783L-89.2561 125.916L-88.6981 125.05L-87.861 124.256L-87.3029 123.39L-86.7448 122.524L-86.1867 121.658L-85.6287 120.792L-84.7916 119.926L-84.2335 119.132L-83.6754 118.266L-83.1174 117.4L-82.5593 116.606L-82.0012 115.812L-81.1641 115.018L-80.606 114.224L-80.048 113.502L-79.4899 112.781L-78.9318 112.059L-78.3737 111.409L-77.5366 110.76L-76.9786 110.11L-76.4205 109.533L-75.8624 108.955L-75.3044 108.45L-74.4672 107.945L-73.9092 107.44L-73.3511 107.079L-72.793 106.646L-72.235 106.357L-71.6769 106.068L-70.8398 105.78L-70.2817 105.563L-69.7236 105.419L-69.1656 105.274L-68.6075 105.202L-67.7704 105.13H-67.2123L-66.6543 105.202L-66.0962 105.346L-65.5381 105.491L-64.98 105.635L-64.1429 105.852L-63.5849 106.14L-63.0268 106.501L-62.4687 106.862L-61.9106 107.295L-61.3526 107.728L-60.5155 108.233L-59.9574 108.739L-59.3993 109.316L-58.8413 109.894L-58.2832 110.543L-57.4461 111.265L-56.888 111.914L-56.3299 112.708L-55.7719 113.43L-55.2138 114.224L-54.6557 115.09L-53.8186 115.956L-53.2605 116.822L-52.7025 117.688L-52.1444 118.627L-51.5863 119.493L-50.7492 120.431L-50.1911 121.369L-49.6331 122.38L-49.075 123.318L-48.5169 124.256L-47.9589 125.267L-47.1218 126.205L-46.5637 127.143L-46.0056 128.154L-45.4475 129.092L-44.8895 130.03L-44.3314 130.969L-43.4943 131.835L-42.9362 132.773L-42.3781 133.639L-41.8201 134.433L-41.262 135.299L-40.4249 136.093L-39.8668 136.887L-39.3088 137.609L-38.7507 138.331L-38.1926 138.98L-37.6345 139.63L-36.7974 140.207L-36.2394 140.785L-35.6813 141.29L-35.1232 141.723L-34.5652 142.156L-34.0071 142.589L-33.17 142.878L-32.6119 143.166L-32.0538 143.455L-31.4958 143.599L-30.9377 143.744L-30.1006 143.888H-29.5425H-28.9844L-28.4264 143.816L-27.8683 143.672L-27.3102 143.527L-26.4731 143.311L-25.915 143.022L-25.357 142.733L-24.7989 142.3L-24.2408 141.939L-23.4037 141.434L-22.8457 140.929L-22.2876 140.352L-21.7295 139.702L-21.1714 139.052L-20.6134 138.331L-19.7763 137.609L-19.2182 136.815L-18.6601 136.021L-18.102 135.155L-17.544 134.289L-16.9859 133.351L-16.1488 132.34L-15.5907 131.402L-15.0327 130.391L-14.4746 129.309L-13.9165 128.298L-13.0794 127.216L-12.5213 126.133L-11.9633 124.978L-11.4052 123.896L-10.8471 122.741L-10.289 121.658L-9.45194 120.503L-8.89387 119.349L-8.3358 118.266L-7.77773 117.111L-7.21966 116.028L-6.38255 114.946L-5.82448 113.791L-5.26641 112.781L-4.70834 111.698L-4.15026 110.687L-3.59219 109.677L-2.75509 108.667L-2.19701 107.728L-1.63894 106.862L-1.08087 105.924L-0.5228 105.13L0.0352711 104.336L0.872378 103.542L1.43045 102.82L1.98852 102.171L2.54659 101.521L3.10466 101.016L3.94177 100.439L4.49984 100.005L5.05791 99.5724L5.61598 99.2837L6.17406 98.9229L6.73213 98.7063L7.56923 98.562L8.12731 98.4176H8.68538H9.24345L9.80152 98.4898L10.6386 98.6341L11.1967 98.7785L11.7548 99.0672L12.3128 99.3559L12.8709 99.789L13.429 100.222L14.2661 100.727L14.8242 101.305L15.3822 101.954L15.9403 102.604L16.4984 103.398L17.0564 104.192L17.8936 105.058L18.4516 105.924L19.0097 106.862L19.5678 107.873L20.1258 108.955L20.9629 110.038L21.521 111.193L22.0791 112.347L22.6372 113.574L23.1952 114.874L23.7533 116.101L24.5904 117.472L25.1485 118.771L25.7066 120.142L26.2646 121.514L26.8227 122.957L27.3808 124.329L28.2179 125.772L28.7759 127.216L29.334 128.659L29.8921 130.03L30.4502 131.474L31.2873 132.918L31.8453 134.361L32.4034 135.732L32.9615 137.104L33.5195 138.475L34.0776 139.774L34.9147 141.073L35.4728 142.373L36.0309 143.599L36.5889 144.826L37.147 145.981L37.9841 147.136L38.5422 148.147L39.1003 149.157L39.6583 150.167L40.2164 151.034L40.7745 151.9L41.6116 152.694L42.1697 153.415L42.7277 154.065L43.2858 154.642L43.8439 155.148L44.4019 155.581L45.239 155.941L45.7971 156.23L46.3552 156.375L46.9133 156.519L47.4713 156.591L48.3084 156.519L48.8665 156.375L49.4246 156.158L49.9827 155.869L50.5407 155.508L51.0988 155.003L51.9359 154.426L52.494 153.776L53.052 153.054L53.6101 152.261L54.1682 151.322L55.0053 150.312L55.5634 149.229L56.1214 148.074L56.6795 146.847L57.2376 145.548L57.7957 144.105L58.6328 142.661L59.1908 141.073L59.7489 139.485L60.307 137.753L60.865 136.021L61.4231 134.217L62.2602 132.34L62.8183 130.391L63.3764 128.37L63.9344 126.277L64.4925 124.184L65.3296 122.019L65.8877 119.854L66.4458 117.616L67.0038 115.307L67.5619 113.069L68.12 110.687L68.9571 108.378L69.5151 105.996L70.0732 103.614L70.6313 101.16L71.1894 98.7785L71.7474 96.3967L72.5845 93.9427L73.1426 91.5609L73.7007 89.1792L74.2588 86.7974L74.8168 84.4156L75.6539 82.106L76.212 79.7963L76.7701 77.4867L77.3281 75.2493L77.8862 73.0118L78.4443 70.8466L79.2814 68.7535L79.8395 66.6604L80.3975 64.7117L80.9556 62.7629L81.5137 60.8142L82.3508 59.0098L82.9089 57.2776L83.4669 55.5454L84.025 53.9575L84.5831 52.4418L85.1411 50.9983L85.9783 49.627L86.5363 48.3278L87.0944 47.173L87.6525 46.0904L88.2105 45.0799L88.7686 44.1416L89.6057 43.3477L90.1638 42.626L90.7219 41.9764L91.2799 41.4712L91.838 41.1103L92.6751 40.7494L93.2332 40.5329L93.7913 40.4607H94.3493L94.9074 40.5329L95.4655 40.7494L96.3026 41.1103L96.8606 41.4712L97.4187 41.9764L97.9768 42.626L98.5349 43.3477L99.372 44.1416L99.93 45.0799L100.488 46.0904L101.046 47.173L101.604 48.3278L102.162 49.627L102.999 50.9983L103.558 52.4418L104.116 53.9575L104.674 55.5454L105.232 57.2776L105.79 59.0098L106.627 60.8142L107.185 62.7629L107.743 64.7117L108.301 66.6604L108.859 68.7535L109.696 70.8466L110.254 73.0118L110.812 75.2493L111.37 77.4867L111.929 79.7963L112.487 82.106L113.324 84.4156L113.882 86.7974L114.44 89.1792L114.998 91.5609L115.556 93.9427L116.393 96.3967L116.951 98.7785L117.509 101.16L118.067 103.614L118.625 105.996L119.183 108.378L120.021 110.687L120.579 113.069L121.137 115.307L121.695 117.616L122.253 119.854L122.811 122.019L123.648 124.184L124.206 126.277L124.764 128.37L125.322 130.391L125.88 132.34L126.717 134.217L127.276 136.021L127.834 137.753L128.392 139.485L128.95 141.073L129.508 142.661L130.345 144.105L130.903 145.548L131.461 146.847L132.019 148.074L132.577 149.229L133.135 150.312L133.972 151.322L134.53 152.261L135.089 153.054L135.647 153.776L136.205 154.426L137.042 155.003L137.6 155.508L138.158 155.869L138.716 156.158L139.274 156.375L139.832 156.519L140.669 156.591L141.227 156.519L141.785 156.375L142.343 156.23L142.902 155.941L143.739 155.581L144.297 155.148L144.855 154.642L145.413 154.065L145.971 153.415L146.529 152.694L147.366 151.9L147.924 151.034L148.482 150.167L149.04 149.157L149.598 148.147L150.156 147.136L150.994 145.981L151.552 144.826L152.11 143.599L152.668 142.373L153.226 141.073L154.063 139.774L154.621 138.475L155.179 137.104L155.737 135.732L156.295 134.361L156.853 132.918L157.69 131.474L158.248 130.03L158.807 128.659L159.365 127.216L159.923 125.772L160.76 124.329L161.318 122.957L161.876 121.514L162.434 120.142L162.992 118.771L163.55 117.472L164.387 116.101L164.945 114.874L165.503 113.574L166.061 112.347L166.62 111.193L167.178 110.038L168.015 108.955L168.573 107.873L169.131 106.862L169.689 105.924L170.247 105.058L171.084 104.192L171.642 103.398L172.2 102.604L172.758 101.954L173.316 101.305L173.874 100.727L174.712 100.222L175.27 99.789L175.828 99.3559L176.386 99.0672L176.944 98.7785L177.502 98.6341L178.339 98.4898L178.897 98.4176H179.455H180.013L180.571 98.562L181.408 98.7063L181.967 98.9229L182.525 99.2837L183.083 99.5724L183.641 100.005L184.199 100.439L185.036 101.016L185.594 101.521L186.152 102.171L186.71 102.82L187.268 103.542L188.105 104.336L188.663 105.13L189.221 105.924L189.78 106.862L190.338 107.728L190.896 108.667L191.733 109.677L192.291 110.687L192.849 111.698L193.407 112.781L193.965 113.791L194.523 114.946L195.36 116.028L195.918 117.111L196.476 118.266L197.034 119.349L197.593 120.503L198.43 121.658L198.988 122.741L199.546 123.896L200.104 124.978L200.662 126.133L201.22 127.216L202.057 128.298L202.615 129.309L203.173 130.391L203.731 131.402L204.289 132.34L205.126 133.351L205.685 134.289L206.243 135.155L206.801 136.021L207.359 136.815L207.917 137.609L208.754 138.331L209.312 139.052L209.87 139.702L210.428 140.352L210.986 140.929L211.544 141.434L212.381 141.939L212.939 142.3L213.498 142.733L214.056 143.022L214.614 143.311L215.451 143.527L216.009 143.672L216.567 143.816L217.125 143.888H217.683H218.241L219.078 143.744L219.636 143.599L220.194 143.455L220.752 143.166L221.311 142.878L222.148 142.589L222.706 142.156L223.264 141.723L223.822 141.29L224.38 140.785L224.938 140.207L225.775 139.63L226.333 138.98L226.891 138.331L227.449 137.609L228.007 136.887L228.565 136.093L229.403 135.299L229.961 134.433L230.519 133.639L231.077 132.773L231.635 131.835L232.472 130.969L233.03 130.03L233.588 129.092L234.146 128.154L234.704 127.143L235.262 126.205L236.099 125.267L236.658 124.256L237.216 123.318L237.774 122.38L238.332 121.369L238.89 120.431L239.727 119.493L240.285 118.627L240.843 117.688L241.401 116.822L241.959 115.956L242.796 115.09L243.354 114.224L243.912 113.43L244.471 112.708L245.029 111.914L245.587 111.265L246.424 110.543L246.982 109.894L247.54 109.316L248.098 108.739L248.656 108.233L249.493 107.728L250.051 107.295L250.609 106.862L251.167 106.501L251.725 106.14L252.284 105.852L253.121 105.635L253.679 105.491L254.237 105.346L254.795 105.202L255.353 105.13H255.911L256.748 105.202L257.306 105.274L257.864 105.419L258.422 105.563L258.98 105.78L259.817 106.068L260.376 106.357L260.934 106.646L261.492 107.079L262.05 107.44L262.608 107.945L263.445 108.45L264.003 108.955L264.561 109.533L265.119 110.11L265.677 110.76L266.514 111.409L267.072 112.059L267.63 112.781L268.189 113.502L268.747 114.224L269.305 115.018L270.142 115.812L270.7 116.606L271.258 117.4L271.816 118.266L272.374 119.132L272.932 119.926L273.769 120.792L274.327 121.658L274.885 122.524L275.443 123.39L276.002 124.256L276.839 125.05L277.397 125.916L277.955 126.783L278.513 127.577L279.071 128.37L279.629 129.164L280.466 129.958L281.024 130.68L281.582 131.402L282.14 132.124L282.698 132.845L283.535 133.495L284.094 134.144L284.652 134.722L285.21 135.299L285.768 135.805L286.326 136.31L287.163 136.815L287.721 137.248L288.279 137.609L288.837 137.97L289.395 138.331L289.953 138.619L290.79 138.836L291.348 139.052L291.907 139.197L292.465 139.341L293.023 139.413L293.86 139.485H294.418L294.976 139.413L295.534 139.341L296.092 139.269L296.65 139.125L297.487 138.908L298.045 138.692L298.603 138.403L299.161 138.114L299.72 137.753L300.278 137.32L301.115 136.959L301.673 136.454L302.231 136.021L302.789 135.516L303.347 134.938L304.184 134.361L304.742 133.784L305.3 133.134L305.858 132.557L306.416 131.835L306.974 131.185L307.812 130.464L308.37 129.742L308.928 129.02L309.486 128.298L310.044 127.504L310.881 126.783L311.439 125.989L311.997 125.195L312.555 124.473L313.113 123.679L313.671 122.885L314.508 122.091L315.067 121.369L315.625 120.576L316.183 119.854L316.741 119.06L317.299 118.338L318.136 117.616L318.694 116.895L319.252 116.245L319.81 115.595L320.368 114.946L321.205 114.296L321.763 113.719L322.321 113.141L322.88 112.636L323.438 112.059L323.996 111.626L324.833 111.121L325.391 110.687L325.949 110.327L326.507 109.966L327.065 109.605L327.902 109.316L328.46 109.1L329.018 108.883L329.576 108.667L330.134 108.522L330.693 108.45L331.53 108.378L332.088 108.306H332.646L333.204 108.378L333.762 108.45L334.32 108.522L335.157 108.739L335.715 108.883L336.273 109.1L336.831 109.388L337.389 109.677L338.226 109.966L338.785 110.327L339.343 110.76L339.901 111.121L340.459 111.626L341.017 112.059L341.854 112.564L342.412 113.069L342.97 113.647L343.528 114.224L344.086 114.801L344.644 115.451L345.481 116.028L346.039 116.678L346.598 117.4L347.156 118.049L347.714 118.771L348.551 119.421L349.109 120.142L349.667 120.864L350.225 121.586L350.783 122.308L351.341 123.029L352.178 123.751L352.736 124.401L353.294 125.123L353.852 125.844L354.411 126.566L355.248 127.216L355.806 127.937L356.364 128.587L356.922 129.237L357.48 129.814L358.038 130.464L358.875 131.041L359.433 131.618L359.991 132.124L360.549 132.701L361.107 133.206L361.665 133.639L362.503 134.072L363.061 134.505L363.619 134.938L364.177 135.299L364.735 135.588L365.572 135.877L366.13 136.165L366.688 136.382L367.246 136.598L367.804 136.743L368.362 136.887L369.199 136.959L369.758 137.032H370.316H370.874H371.432L372.269 136.959L372.827 136.815L373.385 136.671L373.943 136.526L374.501 136.31L375.059 136.021L375.896 135.732L376.454 135.444L377.012 135.155L377.571 134.722L378.129 134.361L378.687 133.928L379.524 133.495L380.082 133.062L380.64 132.557L381.198 131.979L381.756 131.474L382.593 130.897L383.151 130.319L383.709 129.742L384.267 129.164L384.825 128.515L385.384 127.865L386.221 127.216L386.779 126.566L387.337 125.916L387.895 125.267L388.453 124.617L389.29 123.968L389.848 123.246L390.406 122.596L390.964 121.947L391.522 121.297L392.08 120.648L392.917 119.998L393.476 119.349L394.034 118.699L394.592 118.122L395.15 117.472L395.708 116.895L396.545 116.317L397.103 115.812L397.661 115.235" stroke="#FF0000" stroke-width="6" stroke-linejoin="bevel"/>
<path d="M-209.521 113.253L-208.962 112.818L-208.404 112.455L-207.567 112.092L-207.009 111.801L-206.451 111.511L-205.893 111.22L-205.335 111.003L-204.777 110.785L-203.94 110.567L-203.382 110.422L-202.824 110.349L-202.266 110.276L-201.708 110.204H-201.149H-200.312L-199.754 110.276L-199.196 110.422L-198.638 110.494L-198.08 110.64L-197.243 110.857L-196.685 111.075L-196.127 111.366L-195.569 111.656L-195.011 111.946L-194.453 112.309L-193.615 112.672L-193.057 113.108L-192.499 113.544L-191.941 113.979L-191.383 114.488L-190.546 114.996L-189.988 115.504L-189.43 116.085L-188.872 116.666L-188.314 117.247L-187.756 117.827L-186.919 118.481L-186.361 119.134L-185.802 119.788L-185.244 120.441L-184.686 121.095L-184.128 121.748L-183.291 122.474L-182.733 123.128L-182.175 123.854L-181.617 124.58L-181.059 125.233L-180.222 125.959L-179.664 126.613L-179.106 127.339L-178.548 127.992L-177.989 128.646L-177.431 129.299L-176.594 129.952L-176.036 130.606L-175.478 131.187L-174.92 131.84L-174.362 132.348L-173.525 132.929L-172.967 133.51L-172.409 134.018L-171.851 134.454L-171.293 134.962L-170.735 135.398L-169.897 135.761L-169.339 136.124L-168.781 136.487L-168.223 136.85L-167.665 137.068L-167.107 137.358L-166.27 137.576L-165.712 137.721L-165.154 137.866L-164.596 138.012L-164.038 138.084L-163.201 138.157H-162.643L-162.084 138.084L-161.526 138.012L-160.968 137.939L-160.41 137.794L-159.573 137.649L-159.015 137.431L-158.457 137.14L-157.899 136.85L-157.341 136.56L-156.504 136.196L-155.946 135.833L-155.388 135.398L-154.83 134.962L-154.271 134.527L-153.713 134.018L-152.876 133.51L-152.318 132.929L-151.76 132.348L-151.202 131.768L-150.644 131.187L-150.086 130.533L-149.249 129.88L-148.691 129.154L-148.133 128.5L-147.575 127.774L-147.017 127.048L-146.179 126.322L-145.621 125.596L-145.063 124.87L-144.505 124.144L-143.947 123.345L-143.389 122.619L-142.552 121.893L-141.994 121.095L-141.436 120.369L-140.878 119.643L-140.32 118.916L-139.762 118.19L-138.924 117.464L-138.366 116.811L-137.808 116.085L-137.25 115.431L-136.692 114.778L-135.855 114.197L-135.297 113.616L-134.739 113.035L-134.181 112.455L-133.623 111.946L-133.065 111.438L-132.228 111.003L-131.67 110.567L-131.111 110.131L-130.553 109.768L-129.995 109.405L-129.158 109.115L-128.6 108.824L-128.042 108.607L-127.484 108.461L-126.926 108.244L-126.368 108.171L-125.531 108.098L-124.973 108.026H-124.415L-123.857 108.098L-123.298 108.171L-122.74 108.244L-121.903 108.389L-121.345 108.607L-120.787 108.824L-120.229 109.115L-119.671 109.405L-118.834 109.768L-118.276 110.131L-117.718 110.567L-117.16 111.003L-116.602 111.511L-116.044 112.019L-115.206 112.527L-114.648 113.108L-114.09 113.689L-113.532 114.342L-112.974 114.996L-112.137 115.649L-111.579 116.375L-111.021 117.101L-110.463 117.827L-109.905 118.553L-109.347 119.352L-108.51 120.151L-107.952 120.949L-107.393 121.748L-106.835 122.547L-106.277 123.345L-105.719 124.144L-104.882 125.015L-104.324 125.814L-103.766 126.613L-103.208 127.411L-102.65 128.21L-101.813 129.009L-101.255 129.807L-100.697 130.606L-100.139 131.332L-99.5805 132.058L-99.0224 132.784L-98.1853 133.51L-97.6272 134.164L-97.0691 134.817L-96.5111 135.47L-95.953 136.051L-95.3949 136.632L-94.5578 137.213L-93.9997 137.721L-93.4417 138.157L-92.8836 138.592L-92.3255 139.028L-91.4884 139.391L-90.9304 139.754L-90.3723 140.045L-89.8142 140.262L-89.2561 140.48L-88.6981 140.625L-87.861 140.771L-87.3029 140.843L-86.7448 140.916H-86.1867L-85.6287 140.843L-84.7916 140.771L-84.2335 140.698L-83.6754 140.48L-83.1174 140.262L-82.5593 140.045L-82.0012 139.754L-81.1641 139.391L-80.606 139.028L-80.048 138.592L-79.4899 138.157L-78.9318 137.649L-78.3737 137.14L-77.5366 136.56L-76.9786 135.979L-76.4205 135.325L-75.8624 134.672L-75.3044 133.946L-74.4672 133.22L-73.9092 132.494L-73.3511 131.695L-72.793 130.896L-72.235 130.098L-71.6769 129.226L-70.8398 128.428L-70.2817 127.556L-69.7236 126.685L-69.1656 125.741L-68.6075 124.87L-67.7704 123.926L-67.2123 123.055L-66.6543 122.111L-66.0962 121.24L-65.5381 120.296L-64.98 119.425L-64.1429 118.481L-63.5849 117.61L-63.0268 116.738L-62.4687 115.867L-61.9106 115.068L-61.3526 114.197L-60.5155 113.398L-59.9574 112.6L-59.3993 111.874L-58.8413 111.148L-58.2832 110.422L-57.4461 109.768L-56.888 109.115L-56.3299 108.461L-55.7719 107.881L-55.2138 107.372L-54.6557 106.864L-53.8186 106.428L-53.2605 105.993L-52.7025 105.63L-52.1444 105.267L-51.5863 104.976L-50.7492 104.758L-50.1911 104.541L-49.6331 104.395L-49.075 104.323L-48.5169 104.25H-47.9589L-47.1218 104.323L-46.5637 104.395L-46.0056 104.541L-45.4475 104.758L-44.8895 104.976L-44.3314 105.267L-43.4943 105.557L-42.9362 105.92L-42.3781 106.356L-41.8201 106.864L-41.262 107.372L-40.4249 107.881L-39.8668 108.534L-39.3088 109.115L-38.7507 109.841L-38.1926 110.567L-37.6345 111.293L-36.7974 112.092L-36.2394 112.89L-35.6813 113.762L-35.1232 114.633L-34.5652 115.504L-34.0071 116.448L-33.17 117.392L-32.6119 118.336L-32.0538 119.352L-31.4958 120.369L-30.9377 121.385L-30.1006 122.402L-29.5425 123.418L-28.9844 124.507L-28.4264 125.524L-27.8683 126.613L-27.3102 127.629L-26.4731 128.646L-25.915 129.662L-25.357 130.678L-24.7989 131.695L-24.2408 132.711L-23.4037 133.728L-22.8457 134.672L-22.2876 135.616L-21.7295 136.487L-21.1714 137.358L-20.6134 138.229L-19.7763 139.101L-19.2182 139.827L-18.6601 140.625L-18.102 141.351L-17.544 142.005L-16.9859 142.658L-16.1488 143.239L-15.5907 143.747L-15.0327 144.256L-14.4746 144.691L-13.9165 145.127L-13.0794 145.49L-12.5213 145.78L-11.9633 145.998L-11.4052 146.216L-10.8471 146.361L-10.289 146.434H-9.45194H-8.89387L-8.3358 146.361L-7.77773 146.216L-7.21966 145.998L-6.38255 145.708L-5.82448 145.417L-5.26641 145.054L-4.70834 144.619L-4.15026 144.11L-3.59219 143.602L-2.75509 143.021L-2.19701 142.368L-1.63894 141.714L-1.08087 140.988L-0.5228 140.19L0.0352711 139.318L0.872378 138.447L1.43045 137.576L1.98852 136.632L2.54659 135.616L3.10466 134.599L3.94177 133.51L4.49984 132.421L5.05791 131.332L5.61598 130.17L6.17406 129.009L6.73213 127.774L7.56923 126.54L8.12731 125.306L8.68538 124.071L9.24345 122.837L9.80152 121.603L10.6386 120.296L11.1967 119.062L11.7548 117.827L12.3128 116.521L12.8709 115.286L13.429 114.052L14.2661 112.818L14.8242 111.656L15.3822 110.422L15.9403 109.26L16.4984 108.171L17.0564 107.009L17.8936 105.993L18.4516 104.904L19.0097 103.887L19.5678 102.943L20.1258 102.072L20.9629 101.201L21.521 100.33L22.0791 99.5309L22.6372 98.8049L23.1952 98.1514L23.7533 97.5706L24.5904 96.9898L25.1485 96.4815L25.7066 96.0459L26.2646 95.6829L26.8227 95.3924L27.3808 95.1746L28.2179 95.0294L28.7759 94.8842H29.334H29.8921L30.4502 95.0294L31.2873 95.1746L31.8453 95.4651L32.4034 95.7555L32.9615 96.1185L33.5195 96.6267L34.0776 97.135L34.9147 97.7158L35.4728 98.3693L36.0309 99.1679L36.5889 99.9666L37.147 100.838L37.9841 101.709L38.5422 102.726L39.1003 103.815L39.6583 104.904L40.2164 106.065L40.7745 107.3L41.6116 108.607L42.1697 109.913L42.7277 111.293L43.2858 112.745L43.8439 114.197L44.4019 115.722L45.239 117.247L45.7971 118.844L46.3552 120.441L46.9133 122.111L47.4713 123.781L48.3084 125.451L48.8665 127.193L49.4246 128.936L49.9827 130.606L50.5407 132.348L51.0988 134.164L51.9359 135.906L52.494 137.649L53.052 139.391L53.6101 141.061L54.1682 142.804L55.0053 144.473L55.5634 146.143L56.1214 147.813L56.6795 149.483L57.2376 151.081L57.7957 152.605L58.6328 154.13L59.1908 155.582L59.7489 157.034L60.307 158.414L60.865 159.721L61.4231 161.027L62.2602 162.262L62.8183 163.423L63.3764 164.512L63.9344 165.529L64.4925 166.473L65.3296 167.417L65.8877 168.215L66.4458 168.941L67.0038 169.667L67.5619 170.248L68.12 170.756L68.9571 171.192L69.5151 171.555L70.0732 171.846L70.6313 171.991L71.1894 172.136H71.7474L72.5845 172.063L73.1426 171.918L73.7007 171.7L74.2588 171.337L74.8168 170.974L75.6539 170.466L76.212 169.885L76.7701 169.232L77.3281 168.433L77.8862 167.634L78.4443 166.691L79.2814 165.747L79.8395 164.658L80.3975 163.496L80.9556 162.334L81.5137 161.027L82.3508 159.648L82.9089 158.268L83.4669 156.744L84.025 155.219L84.5831 153.622L85.1411 151.952L85.9783 150.209L86.5363 148.467L87.0944 146.652L87.6525 144.836L88.2105 142.949L88.7686 140.988L89.6057 139.028L90.1638 137.068L90.7219 135.035L91.2799 133.002L91.838 130.969L92.6751 128.863L93.2332 126.83L93.7913 124.725L94.3493 122.619L94.9074 120.586L95.4655 118.481L96.3026 116.448L96.8606 114.342L97.4187 112.309L97.9768 110.349L98.5349 108.316L99.372 106.356L99.93 104.468L100.488 102.58L101.046 100.693L101.604 98.8775L102.162 97.135L102.999 95.3924L103.558 93.7225L104.116 92.1252L104.674 90.6005L105.232 89.1484L105.79 87.6963L106.627 86.3168L107.185 85.0825L107.743 83.8483L108.301 82.6866L108.859 81.6701L109.696 80.6536L110.254 79.7824L110.812 78.9111L111.37 78.1851L111.929 77.5316L112.487 76.9508L113.324 76.4425L113.882 76.0069L114.44 75.7165L114.998 75.4261L115.556 75.2809L116.393 75.2083L116.951 75.2809L117.509 75.3535L118.067 75.5713L118.625 75.7891L119.183 76.1521L120.021 76.5877L120.579 77.096L121.137 77.7494L121.695 78.4029L122.253 79.1289L122.811 80.0002L123.648 80.8714L124.206 81.8153L124.764 82.9044L125.322 83.9935L125.88 85.1551L126.717 86.3168L127.276 87.6237L127.834 88.9306L128.392 90.3827L128.95 91.7622L129.508 93.2869L130.345 94.739L130.903 96.3363L131.461 97.9336L132.019 99.5309L132.577 101.201L133.135 102.871L133.972 104.541L134.53 106.283L135.089 108.026L135.647 109.768L136.205 111.511L137.042 113.253L137.6 114.996L138.158 116.738L138.716 118.481L139.274 120.223L139.832 121.893L140.669 123.563L141.227 125.233L141.785 126.903L142.343 128.5L142.902 130.098L143.739 131.622L144.297 133.147L144.855 134.599L145.413 136.051L145.971 137.431L146.529 138.81L147.366 140.045L147.924 141.279L148.482 142.441L149.04 143.602L149.598 144.619L150.156 145.635L150.994 146.579L151.552 147.45L152.11 148.249L152.668 148.975L153.226 149.628L154.063 150.209L154.621 150.79L155.179 151.226L155.737 151.589L156.295 151.952L156.853 152.17L157.69 152.387L158.248 152.46L158.807 152.533L159.365 152.46L159.923 152.387L160.76 152.17L161.318 151.952L161.876 151.661L162.434 151.298L162.992 150.863L163.55 150.354L164.387 149.846L164.945 149.193L165.503 148.539L166.061 147.813L166.62 147.015L167.178 146.216L168.015 145.345L168.573 144.401L169.131 143.457L169.689 142.441L170.247 141.424L171.084 140.335L171.642 139.246L172.2 138.084L172.758 136.923L173.316 135.761L173.874 134.527L174.712 133.292L175.27 132.058L175.828 130.824L176.386 129.589L176.944 128.283L177.502 127.048L178.339 125.814L178.897 124.507L179.455 123.273L180.013 122.038L180.571 120.804L181.408 119.57L181.967 118.408L182.525 117.247L183.083 116.085L183.641 114.923L184.199 113.834L185.036 112.818L185.594 111.729L186.152 110.785L186.71 109.841L187.268 108.897L188.105 108.026L188.663 107.227L189.221 106.428L189.78 105.702L190.338 104.976L190.896 104.323L191.733 103.742L192.291 103.234L192.849 102.726L193.407 102.363L193.965 102L194.523 101.636L195.36 101.419L195.918 101.201L196.476 101.056L197.034 100.983L197.593 100.91L198.43 100.983L198.988 101.056L199.546 101.201L200.104 101.346L200.662 101.636L201.22 101.927L202.057 102.29L202.615 102.653L203.173 103.089L203.731 103.597L204.289 104.178L205.126 104.758L205.685 105.339L206.243 106.065L206.801 106.791L207.359 107.517L207.917 108.316L208.754 109.115L209.312 109.986L209.87 110.857L210.428 111.801L210.986 112.745L211.544 113.689L212.381 114.633L212.939 115.649L213.498 116.666L214.056 117.682L214.614 118.699L215.451 119.788L216.009 120.804L216.567 121.821L217.125 122.91L217.683 123.926L218.241 124.943L219.078 125.959L219.636 127.048L220.194 127.992L220.752 129.009L221.311 129.952L222.148 130.896L222.706 131.84L223.264 132.784L223.822 133.655L224.38 134.454L224.938 135.325L225.775 136.051L226.333 136.85L226.891 137.576L227.449 138.229L228.007 138.883L228.565 139.464L229.403 140.045L229.961 140.553L230.519 140.988L231.077 141.424L231.635 141.787L232.472 142.15L233.03 142.441L233.588 142.658L234.146 142.804L234.704 142.949L235.262 143.094H236.099H236.658L237.216 143.021L237.774 142.949L238.332 142.804L238.89 142.586L239.727 142.368L240.285 142.077L240.843 141.714L241.401 141.351L241.959 140.988L242.796 140.48L243.354 139.972L243.912 139.464L244.471 138.883L245.029 138.302L245.587 137.649L246.424 136.923L246.982 136.269L247.54 135.543L248.098 134.744L248.656 133.946L249.493 133.147L250.051 132.348L250.609 131.477L251.167 130.606L251.725 129.735L252.284 128.863L253.121 127.992L253.679 127.048L254.237 126.177L254.795 125.233L255.353 124.362L255.911 123.418L256.748 122.547L257.306 121.603L257.864 120.732L258.422 119.86L258.98 118.989L259.817 118.118L260.376 117.319L260.934 116.448L261.492 115.649L262.05 114.923L262.608 114.125L263.445 113.398L264.003 112.745L264.561 112.092L265.119 111.438L265.677 110.857L266.514 110.276L267.072 109.768L267.63 109.26L268.189 108.752L268.747 108.389L269.305 107.953L270.142 107.663L270.7 107.372L271.258 107.082L271.816 106.864L272.374 106.719L272.932 106.574L273.769 106.501L274.327 106.428H274.885L275.443 106.501L276.002 106.574L276.839 106.719L277.397 106.864L277.955 107.082L278.513 107.372L279.071 107.663L279.629 107.953L280.466 108.316L281.024 108.752L281.582 109.187L282.14 109.696L282.698 110.204L283.535 110.712L284.094 111.293L284.652 111.874L285.21 112.527L285.768 113.181L286.326 113.834L287.163 114.56L287.721 115.286L288.279 116.012L288.837 116.811L289.395 117.537L289.953 118.336L290.79 119.134L291.348 119.933L291.907 120.732L292.465 121.603L293.023 122.402L293.86 123.2L294.418 123.999L294.976 124.87L295.534 125.669L296.092 126.467L296.65 127.266L297.487 128.065L298.045 128.791L298.603 129.589L299.161 130.315L299.72 131.042L300.278 131.695L301.115 132.421L301.673 133.074L302.231 133.655L302.789 134.236L303.347 134.817L304.184 135.398L304.742 135.906L305.3 136.342L305.858 136.85L306.416 137.213L306.974 137.649L307.812 137.939L308.37 138.229L308.928 138.52L309.486 138.738L310.044 138.955L310.881 139.101L311.439 139.246L311.997 139.318H312.555H313.113H313.671L314.508 139.246L315.067 139.101L315.625 138.955L316.183 138.738L316.741 138.52L317.299 138.229L318.136 137.939L318.694 137.576L319.252 137.213L319.81 136.85L320.368 136.414L321.205 135.906L321.763 135.47L322.321 134.89L322.88 134.381L323.438 133.801L323.996 133.22L324.833 132.566L325.391 131.913L325.949 131.259L326.507 130.606L327.065 129.88L327.902 129.154L328.46 128.5L329.018 127.702L329.576 126.976L330.134 126.25L330.693 125.524L331.53 124.725L332.088 123.999L332.646 123.273L333.204 122.474L333.762 121.748L334.32 121.022L335.157 120.296L335.715 119.57L336.273 118.916L336.831 118.19L337.389 117.537L338.226 116.884L338.785 116.23L339.343 115.577L339.901 114.996L340.459 114.415L341.017 113.907L341.854 113.326L342.412 112.818L342.97 112.382L343.528 111.946L344.086 111.511L344.644 111.148L345.481 110.785L346.039 110.494L346.598 110.204L347.156 109.986L347.714 109.768L348.551 109.623L349.109 109.478L349.667 109.333L350.225 109.26H350.783H351.341H352.178L352.736 109.333L353.294 109.478L353.852 109.623L354.411 109.841L355.248 110.059L355.806 110.276L356.364 110.567L356.922 110.857L357.48 111.22L358.038 111.583L358.875 112.019L359.433 112.455L359.991 112.89L360.549 113.398L361.107 113.907L361.665 114.415L362.503 114.996L363.061 115.577L363.619 116.157L364.177 116.811L364.735 117.392L365.572 118.045L366.13 118.699L366.688 119.352L367.246 120.078L367.804 120.732L368.362 121.458L369.199 122.111L369.758 122.837L370.316 123.491L370.874 124.217L371.432 124.87L372.269 125.596L372.827 126.25L373.385 126.976L373.943 127.629L374.501 128.283L375.059 128.936L375.896 129.517L376.454 130.17L377.012 130.751L377.571 131.332L378.129 131.84L378.687 132.421L379.524 132.929L380.082 133.365L380.64 133.873L381.198 134.309L381.756 134.672L382.593 135.107L383.151 135.398L383.709 135.761L384.267 136.051L384.825 136.269L385.384 136.487L386.221 136.705L386.779 136.85L387.337 136.995L387.895 137.068L388.453 137.14H389.29H389.848H390.406L390.964 137.068L391.522 136.923L392.08 136.777L392.917 136.632L393.476 136.414L394.034 136.196L394.592 135.906L395.15 135.616L395.708 135.253L396.545 134.89L397.103 134.527L397.661 134.091" stroke="#FF0000" stroke-width="6" stroke-linejoin="bevel"/>
</g>
</g>
<defs>
<clipPath id="clip0_2026_1272">
<rect width="214" height="214" rx="107" fill="white"/>
</clipPath>
<clipPath id="clip1_2026_1272">
<rect width="214" height="140" fill="white" transform="translate(0 37)"/>
</clipPath>
</defs>
</svg>
