<svg width="26" height="26" viewBox="0 0 26 26" fill="none" xmlns="http://www.w3.org/2000/svg">
<path fill-rule="evenodd" clip-rule="evenodd" d="M8.625 0.999023C7.13316 0.999023 5.70242 1.59166 4.64752 2.64655C3.59263 3.70144 3 5.13218 3 6.62402C3 8.11587 3.59263 9.54661 4.64752 10.6015C5.70242 11.6564 7.13316 12.249 8.625 12.249H11.75V23.749C11.75 24.0806 11.8817 24.3985 12.1161 24.6329C12.3505 24.8673 12.6685 24.999 13 24.999C13.3315 24.999 13.6495 24.8673 13.8839 24.6329C14.1183 24.3985 14.25 24.0806 14.25 23.749V3.49902H16.75V23.749C16.75 24.0806 16.8817 24.3985 17.1161 24.6329C17.3505 24.8673 17.6685 24.999 18 24.999C18.3315 24.999 18.6495 24.8673 18.8839 24.6329C19.1183 24.3985 19.25 24.0806 19.25 23.749V3.49902H21.75C22.0815 3.49902 22.3995 3.36733 22.6339 3.13291C22.8683 2.89849 23 2.58054 23 2.24902C23 1.9175 22.8683 1.59956 22.6339 1.36514C22.3995 1.13072 22.0815 0.999023 21.75 0.999023H8.625Z" fill="#929292"/>
</svg>
