<svg width="64" height="64" viewBox="0 0 64 64" fill="none" xmlns="http://www.w3.org/2000/svg">
<g clip-path="url(#clip0_4387_2242)">
<path d="M6.97413 46.028C6.79284 46.4634 6.446 46.809 6.00992 46.9887C5.57383 47.1684 5.08422 47.1675 4.64879 46.9862C4.21337 46.8049 3.86779 46.4581 3.68809 46.022C3.50839 45.5859 3.50928 45.0963 3.69057 44.6609L11.8986 22.3711C11.9859 22.1521 12.1159 21.9527 12.281 21.7845C12.4462 21.6163 12.6431 21.4825 12.8604 21.3911C13.0777 21.2997 13.311 21.2524 13.5467 21.252C13.7824 21.2515 14.0159 21.298 14.2335 21.3887C14.4511 21.4793 14.6485 21.6123 14.8142 21.78C14.9799 21.9476 15.1107 22.1466 15.1988 22.3652C15.2869 22.5839 15.3306 22.8179 15.3275 23.0536C15.3243 23.2893 15.2743 23.522 15.1804 23.7382L6.97413 46.028Z" fill="#66757F"/>
<path d="M24.7518 44.661C24.9331 45.0964 24.934 45.586 24.7543 46.0221C24.5746 46.4582 24.229 46.805 23.7936 46.9863C23.3582 47.1676 22.8686 47.1685 22.4325 46.9888C21.9964 46.8091 21.6496 46.4635 21.4683 46.0281L13.2638 23.7383C13.0825 23.3029 13.0816 22.8133 13.2613 22.3772C13.441 21.9411 13.7866 21.5943 14.222 21.413C14.6575 21.2317 15.1471 21.2308 15.5832 21.4105C16.0192 21.5902 16.3661 21.9358 16.5474 22.3712L24.7518 44.661Z" fill="#66757F"/>
<path d="M41.5625 36.6578C41.9917 36.4899 42.339 36.1621 42.5314 35.7434L50.7358 13.4536C50.9174 13.0184 50.9186 12.5289 50.7392 12.0928C50.5598 11.6567 50.2146 11.3098 49.7794 11.1282C49.3442 10.9467 48.8547 10.9455 48.4186 11.1249C47.9826 11.3042 47.6356 11.6495 47.4541 12.0847L39.2478 34.3763C39.0862 34.8078 39.0983 35.2852 39.2815 35.7081C39.4648 36.1309 39.8049 36.4662 40.2303 36.6433C40.6558 36.8204 41.1333 36.8256 41.5625 36.6578Z" fill="#66757F"/>
<path d="M60.3074 34.3757C60.4887 34.8112 60.4896 35.3008 60.3099 35.7369C60.1302 36.173 59.7846 36.5198 59.3492 36.7011C58.9138 36.8824 58.4241 36.8833 57.9881 36.7036C57.552 36.5239 57.2051 36.1783 57.0238 35.7429L48.8194 13.4531C48.7254 13.2369 48.6754 13.0041 48.6723 12.7684C48.6691 12.5327 48.7129 12.2987 48.801 12.0801C48.8891 11.8614 49.0198 11.6625 49.1855 11.4948C49.3513 11.3272 49.5487 11.1941 49.7663 11.1035C49.9839 11.0128 50.2173 10.9664 50.4531 10.9668C50.6888 10.9672 50.9221 11.0145 51.1394 11.1059C51.3567 11.1974 51.5536 11.3311 51.7187 11.4993C51.8838 11.6676 52.0138 11.867 52.1012 12.0859L60.3074 34.3757Z" fill="#66757F"/>
<path d="M39.1021 59.4997H21.4694C21.0797 59.4997 20.7059 59.3552 20.4304 59.098C20.1548 58.8409 20 58.492 20 58.1283C20 55.0988 24.6051 52.6426 30.2857 52.6426C35.9664 52.6426 40.5714 55.0988 40.5714 58.1283C40.5714 58.492 40.4166 58.8409 40.1411 59.098C39.8655 59.3552 39.4918 59.4997 39.1021 59.4997Z" fill="#66757F"/>
<path d="M32.0634 10.7571C32.0634 10.2856 31.8761 9.8334 31.5427 9.5C31.2093 9.1666 30.7571 8.9793 30.2856 8.9793C29.8141 8.9793 29.3619 9.1666 29.0285 9.5C28.6951 9.8334 28.5078 10.2856 28.5078 10.7571V56.7781C28.5078 57.2496 28.6951 57.7017 29.0285 58.0351C29.3619 58.3685 29.8141 58.5558 30.2856 58.5558C30.7571 58.5558 31.2093 58.3685 31.5427 58.0351C31.8761 57.7017 32.0634 57.2496 32.0634 56.7781V10.7571Z" fill="#66757F"/>
<path d="M29.5556 13.1111C31.5192 13.1111 33.1111 11.5192 33.1111 9.55556C33.1111 7.59188 31.5192 6 29.5556 6C27.5919 6 26 7.59188 26 9.55556C26 11.5192 27.5919 13.1111 29.5556 13.1111Z" fill="#FFAC33"/>
<path d="M14.2221 26.6111C16.1857 26.6111 17.7776 25.0192 17.7776 23.0556C17.7776 21.0919 16.1857 19.5 14.2221 19.5C12.2584 19.5 10.6665 21.0919 10.6665 23.0556C10.6665 25.0192 12.2584 26.6111 14.2221 26.6111Z" fill="#FFAC33"/>
<path d="M49.7777 16.325C51.7414 16.325 53.3333 14.7331 53.3333 12.7694C53.3333 10.8057 51.7414 9.21387 49.7777 9.21387C47.814 9.21387 46.2222 10.8057 46.2222 12.7694C46.2222 14.7331 47.814 16.325 49.7777 16.325Z" fill="#FFAC33"/>
<path d="M49.9755 12.9742C50.4878 14.8689 49.9755 12.9742 32.814 17.6147C15.6526 22.2552 16.1649 24.1498 15.6526 22.2552C15.1403 20.3606 18.9448 13.9985 30.9578 10.7501C42.9709 7.5018 49.4632 11.0796 49.9755 12.9742Z" fill="#FFAC33"/>
<path d="M2.032 44.3887H26.4125C27.5342 44.3887 28.4445 45.2971 28.4445 46.4207C28.4445 50.9078 22.0765 54.5469 14.2222 54.5469C6.36801 54.5469 0 50.9078 0 46.4207C0 45.2971 0.910223 44.3887 2.032 44.3887Z" fill="#FFAC33"/>
<path d="M37.5877 34.1025H61.9681C63.0917 34.1025 64.0001 35.011 64.0001 36.1345C64.0001 40.6217 57.6339 44.2608 49.7779 44.2608C41.9219 44.2608 35.5557 40.6217 35.5557 36.1345C35.5557 35.011 36.4641 34.1025 37.5877 34.1025Z" fill="#FFAC33"/>
</g>
<defs>
<clipPath id="clip0_4387_2242">
<rect width="64" height="64" fill="white"/>
</clipPath>
</defs>
</svg>
