<svg width="64" height="64" viewBox="0 0 64 64" fill="none" xmlns="http://www.w3.org/2000/svg">
<path fill-rule="evenodd" clip-rule="evenodd" d="M25.5999 12.7999C25.5999 11.9512 25.937 11.1372 26.5371 10.5371C27.1372 9.937 27.9512 9.59985 28.7999 9.59985H54.3999C55.2485 9.59985 56.0625 9.937 56.6626 10.5371C57.2627 11.1372 57.5999 11.9512 57.5999 12.7999C57.5999 13.6485 57.2627 14.4625 56.6626 15.0626C56.0625 15.6627 55.2485 15.9999 54.3999 15.9999H28.7999C27.9512 15.9999 27.1372 15.6627 26.5371 15.0626C25.937 14.4625 25.5999 13.6485 25.5999 12.7999ZM25.5999 31.9999C25.5999 31.1512 25.937 30.3372 26.5371 29.7371C27.1372 29.137 27.9512 28.7999 28.7999 28.7999H54.3999C55.2485 28.7999 56.0625 29.137 56.6626 29.7371C57.2627 30.3372 57.5999 31.1512 57.5999 31.9999C57.5999 32.8485 57.2627 33.6625 56.6626 34.2626C56.0625 34.8627 55.2485 35.1999 54.3999 35.1999H28.7999C27.9512 35.1999 27.1372 34.8627 26.5371 34.2626C25.937 33.6625 25.5999 32.8485 25.5999 31.9999ZM25.5999 51.1999C25.5999 50.3512 25.937 49.5372 26.5371 48.9371C27.1372 48.337 27.9512 47.9999 28.7999 47.9999H54.3999C55.2485 47.9999 56.0625 48.337 56.6626 48.9371C57.2627 49.5372 57.5999 50.3512 57.5999 51.1999C57.5999 52.0485 57.2627 52.8625 56.6626 53.4626C56.0625 54.0627 55.2485 54.3999 54.3999 54.3999H28.7999C27.9512 54.3999 27.1372 54.0627 26.5371 53.4626C25.937 52.8625 25.5999 52.0485 25.5999 51.1999Z" fill="#C3A5FF"/>
<path d="M6.3999 49.5999C6.3999 48.3269 6.90562 47.106 7.80579 46.2058C8.70596 45.3056 9.92686 44.7999 11.1999 44.7999H14.3999C15.6729 44.7999 16.8938 45.3056 17.794 46.2058C18.6942 47.106 19.1999 48.3269 19.1999 49.5999V52.7999C19.1999 54.0729 18.6942 55.2938 17.794 56.194C16.8938 57.0942 15.6729 57.5999 14.3999 57.5999H11.1999C9.92686 57.5999 8.70596 57.0942 7.80579 56.194C6.90562 55.2938 6.3999 54.0729 6.3999 52.7999V49.5999ZM6.3999 30.3999C6.3999 29.1269 6.90562 27.906 7.80579 27.0058C8.70596 26.1056 9.92686 25.5999 11.1999 25.5999H14.3999C15.6729 25.5999 16.8938 26.1056 17.794 27.0058C18.6942 27.906 19.1999 29.1269 19.1999 30.3999V33.5999C19.1999 34.8729 18.6942 36.0938 17.794 36.994C16.8938 37.8942 15.6729 38.3999 14.3999 38.3999H11.1999C9.92686 38.3999 8.70596 37.8942 7.80579 36.994C6.90562 36.0938 6.3999 34.8729 6.3999 33.5999V30.3999ZM6.3999 11.1999C6.3999 9.92686 6.90562 8.70596 7.80579 7.80579C8.70596 6.90562 9.92686 6.3999 11.1999 6.3999H14.3999C15.6729 6.3999 16.8938 6.90562 17.794 7.80579C18.6942 8.70596 19.1999 9.92686 19.1999 11.1999V14.3999C19.1999 15.6729 18.6942 16.8938 17.794 17.794C16.8938 18.6942 15.6729 19.1999 14.3999 19.1999H11.1999C9.92686 19.1999 8.70596 18.6942 7.80579 17.794C6.90562 16.8938 6.3999 15.6729 6.3999 14.3999V11.1999Z" fill="#9C6CFE"/>
</svg>
