<svg width="322" height="226" viewBox="0 0 322 226" fill="none" xmlns="http://www.w3.org/2000/svg">
<path d="M314.859 35.2497C313.012 28.4365 309.41 22.2251 304.411 17.2341C299.412 12.2431 293.191 8.64653 286.367 6.8026C261.384 0 160.837 0 160.837 0C160.837 0 60.2843 0.205911 35.3015 7.00851C28.4773 8.85255 22.256 12.4493 17.2572 17.4406C12.2584 22.4318 8.65641 28.6435 6.81002 35.4569C-0.746698 79.7755 -3.67809 147.307 7.01752 189.853C8.8641 196.666 12.4661 202.877 17.4649 207.868C22.4638 212.859 28.6849 216.456 35.509 218.3C60.4918 225.102 161.042 225.102 161.042 225.102C161.042 225.102 261.591 225.102 286.572 218.3C293.396 216.456 299.618 212.859 304.617 207.868C309.616 202.877 313.218 196.666 315.065 189.853C323.035 145.471 325.491 77.9813 314.859 35.2497Z" fill="#FF0000"/>
<path d="M128.833 160.786L212.245 112.551L128.833 64.3146V160.786Z" fill="white"/>
</svg>
