<svg width="534" height="534" viewBox="0 0 534 534" fill="none" xmlns="http://www.w3.org/2000/svg">
<path d="M143.151 308.517C147.048 300.713 129.411 272.012 121.169 259.18C118.683 258.918 114.074 260.406 115.522 268.458C117.331 278.523 110.365 289.265 110.745 301.768C111.103 313.585 127.298 324.268 137.231 316.6C140.366 314.18 138.28 318.273 143.151 308.517Z" fill="#5A5958"/>
<path d="M505 429.589C505 450.024 416.563 485 286.5 485C156.437 485 46 475.935 46 455.5C46 435.065 139.437 392.589 269.5 392.589C399.563 392.589 505 409.154 505 429.589Z" fill="#5A5958"/>
<path d="M377.5 468.725C377.5 448.29 306.761 431.725 219.5 431.725C132.239 431.725 87 423.29 87 443.725C87 464.159 132.239 505.725 219.5 505.725C306.761 505.725 377.5 489.159 377.5 468.725Z" fill="#5A5958"/>
<ellipse cx="396.5" cy="467" rx="83.5" ry="37" fill="#5A5958"/>
<path d="M232.605 421.281C232.605 421.281 235.305 438.612 239.774 443.202C244.243 447.792 264.716 461.655 331.772 444.983C398.828 428.311 412.325 404.05 413.741 399.827C415.187 395.552 407.457 376.374 407.457 376.374L232.605 421.281Z" fill="#5F989E"/>
<path d="M236.193 69.0954C128.845 94.4903 88.5836 153.133 94.134 178.683C98.3007 197.78 130.306 308.842 141.459 343.213C152.612 377.584 166.153 401.684 190.245 417.126C212.147 431.168 249.924 444.974 328.826 424.48C405.956 404.461 428.319 370.092 439.323 351.034C450.326 331.976 453.554 307.917 447.153 269.681C441.49 235.653 407.363 111.512 402.731 96.6429C394.975 71.727 338.592 44.8969 236.193 69.0954Z" fill="#BACDD2"/>
<path d="M145.587 236.117C126.325 238.86 153.176 325.691 170.862 357.362C185.959 384.37 208.763 403.224 220.378 392.899C229.412 384.864 202.151 355.499 187.028 318.564C166.237 267.728 163.598 233.538 145.587 236.117Z" fill="#DCEDF6"/>
<path d="M121.731 176.903C124.483 202.167 173.304 224.631 263.464 201.336C348.777 179.298 387.769 133.649 381.571 110.519C375.071 86.2598 327.74 69.3566 235.432 93.6586C144.263 117.699 119.329 155.045 121.731 176.903Z" fill="#EEF9FF"/>
<mask id="mask0_2760_352" style="mask-type:alpha" maskUnits="userSpaceOnUse" x="121" y="81" width="262" height="131">
<path d="M121.731 176.903C124.483 202.167 173.304 224.631 263.464 201.336C348.777 179.298 387.769 133.649 381.571 110.519C375.071 86.2598 327.74 69.3566 235.432 93.6586C144.263 117.699 119.329 155.045 121.731 176.903Z" fill="#EEF9FF"/>
</mask>
<g mask="url(#mask0_2760_352)">
<path d="M139 203.443C157.773 220.38 196.28 234.815 256.271 235.357C314.01 235.858 355.145 221.423 376.63 204.694C367.535 188.591 334.661 170.193 256.647 168.107C183.597 166.146 147.677 191.678 139 203.443Z" fill="#5A5958"/>
<path d="M319.976 229.016C338.791 224.761 354.227 218.67 366.033 211.786C369.955 209.492 350.138 182.041 273.251 180.497C254.978 180.122 242.879 182.583 242.713 187.464C242.337 199.062 273.501 193.305 292.566 203.693C308.962 212.579 316.513 221.423 319.976 229.016Z" fill="#ADBB9D"/>
</g>
<path d="M150.266 226.089C151.466 220.489 160.099 212.089 164.266 208.589L177.266 195.589C197.433 197.089 237.366 201.789 235.766 208.589C233.766 217.089 223.766 226.089 218.266 226.089C212.766 226.089 206.766 224.589 199.266 224.589C191.766 224.589 189.266 226.089 184.766 230.589C180.266 235.089 181.266 239.589 177.266 247.089C173.266 254.589 169.266 258.089 164.266 257.589C159.266 257.089 156.766 255.089 152.266 250.089C147.766 245.089 148.766 233.089 150.266 226.089Z" fill="#5A5958"/>
<path d="M251.494 279.225C249.188 296.876 233.871 310.731 222.615 309.26C211.359 307.789 210.062 291.57 212.368 273.918C214.675 256.266 219.867 235.315 231.123 236.786C242.379 238.257 253.8 261.573 251.494 279.225Z" fill="#5A5958"/>
</svg>
