<svg width="120" height="120" viewBox="0 0 120 120" fill="none" xmlns="http://www.w3.org/2000/svg">
<path d="M103.68 12.5292C89.98 7.16922 40.4 5.22922 40.34 34.8292C25.86 44.0692 16.3 59.1292 16.3 75.2892C16.3 94.8092 32.14 110.649 51.66 110.649C71.18 110.649 87.02 94.8092 87.02 75.2892C87.02 60.2292 77.58 47.2992 64.27 42.2592C61.68 41.2892 56.13 39.5492 51.73 39.9292C45.4 43.9392 37.64 52.2092 34.02 60.4792C39.45 53.9492 47.92 51.1092 55.48 52.3392C66.53 54.1492 75 63.7192 75 75.3492C75 88.2092 64.59 98.6192 51.73 98.6192C44.62 98.6192 38.29 95.4492 34.02 90.4792C27.62 83.0492 26.01 75.0292 27.3 67.2092C31.76 39.7992 64.27 24.2292 88.45 18.2192C80.56 22.4192 66.34 29.2692 56.39 36.7092C85.41 47.9592 90.13 23.4592 103.7 12.5392L103.68 12.5292Z" fill="#046530"/>
</svg>
