<svg width="80" height="80" viewBox="0 0 80 80" fill="none" xmlns="http://www.w3.org/2000/svg">
<path d="M17.875 38C27.7471 38 35.75 29.9971 35.75 20.125C35.75 10.2529 27.7471 2.25 17.875 2.25C8.00291 2.25 0 10.2529 0 20.125C0 29.9971 8.00291 38 17.875 38Z" fill="#4CAF50"/>
<path d="M26.8976 12.1238L15.3214 23.7L10.5548 18.9333L8.17145 21.3166L15.3214 28.4666L29.281 14.5071L26.8976 12.1238Z" fill="#CCFF90"/>
<path d="M35.75 59.875C35.75 69.7471 27.7471 77.75 17.875 77.75C8.00289 77.75 0 69.7471 0 59.875C0 50.0029 8.00289 42 17.875 42C27.7471 42 35.75 50.0029 35.75 59.875Z" fill="#F8312F"/>
<rect x="5.44763" y="57.8328" width="24.5143" height="4.08571" fill="#FFCFCF"/>
<path d="M47 19H73" stroke="#35363D" stroke-width="2" stroke-linecap="round"/>
<path d="M47 60H73" stroke="#35363D" stroke-width="2" stroke-linecap="round"/>
</svg>
