<svg width="64" height="64" viewBox="0 0 64 64" fill="none" xmlns="http://www.w3.org/2000/svg">
<path d="M32 62C48.5685 62 62 48.5685 62 32C62 15.4315 48.5685 2 32 2C15.4315 2 2 15.4315 2 32C2 48.5685 15.4315 62 32 62Z" fill="#FF5A79"/>
<path d="M32 56C45.2548 56 56 45.2548 56 32C56 18.7452 45.2548 8 32 8C18.7452 8 8 18.7452 8 32C8 45.2548 18.7452 56 32 56Z" fill="#333333"/>
<path d="M32 50C41.9411 50 50 45.5228 50 40C50 34.4772 41.9411 30 32 30C22.0589 30 14 34.4772 14 40C14 45.5228 22.0589 50 32 50Z" fill="#292F33"/>
<path d="M32 48C41.9411 48 50 43.5228 50 38C50 32.4772 41.9411 28 32 28C22.0589 28 14 32.4772 14 38C14 43.5228 22.0589 48 32 48Z" fill="#66757F"/>
<path d="M32 45C17.042 45 15 30 15 26H49C49 28 47.042 45 32 45Z" fill="#E1E8ED"/>
<path d="M49 26.0563C49 31.2723 41.389 35.5003 32 35.5003C22.611 35.5003 15 31.2713 15 26.0563C15 20.8413 22.611 17.6113 32 17.6113C41.389 17.6113 49 20.8403 49 26.0563Z" fill="#77B255"/>
<path d="M32 34C40.2843 34 47 30.866 47 27C47 23.134 40.2843 20 32 20C23.7157 20 17 23.134 17 27C17 30.866 23.7157 34 32 34Z" fill="#A6D388"/>
<path d="M35.0001 31C34.7349 31 34.4806 30.8946 34.2931 30.707C31.9561 28.37 31.9171 25.822 34.1681 22.445C34.9071 21.336 35.0681 20.199 34.6461 19.068C34.1851 17.832 33.2081 17.072 32.9151 16.991C32.3621 16.991 31.9571 16.548 31.9571 15.995C31.9571 15.442 32.4481 15 33.0001 15C33.9971 15 35.3951 16.153 36.1831 17.625C37.2171 19.558 37.0931 21.664 35.8321 23.554C33.8711 26.496 34.3011 27.886 35.7071 29.292C35.8477 29.4316 35.9437 29.6099 35.9827 29.8042C36.0217 29.9985 36.0021 30.2 35.9263 30.3831C35.8505 30.5662 35.722 30.7226 35.5571 30.8325C35.3921 30.9423 35.1982 31.0007 35.0001 31ZM29.0001 29C28.7349 29 28.4806 28.8946 28.2931 28.707C25.9561 26.37 25.9171 23.822 28.1681 20.445C28.8951 19.354 29.0611 18.362 28.6621 17.498C28.2181 16.537 27.2311 16.029 26.9781 15.999C26.8473 15.9989 26.7178 15.9729 26.5972 15.9224C26.4765 15.872 26.3671 15.7982 26.2751 15.7052C26.1832 15.6122 26.1105 15.5019 26.0614 15.3807C26.0123 15.2595 25.9877 15.1298 25.9891 14.999C25.9891 14.447 26.4471 13.999 27.0001 13.999C27.9971 13.999 29.5851 14.973 30.3601 16.422C30.8411 17.321 31.4121 19.183 29.8321 21.553C27.8711 24.495 28.3011 25.885 29.7071 27.291C29.8945 27.4786 29.9999 27.7329 29.9999 27.998C29.9999 28.2632 29.8945 28.5175 29.7071 28.705C29.6144 28.7983 29.5042 28.8723 29.3829 28.9229C29.2616 28.9735 29.1315 28.9997 29.0001 29Z" fill="#5C913B"/>
<path d="M9.22998 13.4744L13.473 9.23242L54.767 50.5264L50.525 54.7694L9.22998 13.4744Z" fill="#FF5A79"/>
</svg>
