<svg width="64" height="64" viewBox="0 0 64 64" fill="none" xmlns="http://www.w3.org/2000/svg">
<g clip-path="url(#clip0_4387_2182)">
<path d="M32 63.9999C49.6731 63.9999 64 56.0405 64 46.2221C64 36.4037 49.6731 28.4443 32 28.4443C14.3269 28.4443 0 36.4037 0 46.2221C0 56.0405 14.3269 63.9999 32 63.9999Z" fill="#292F33"/>
<path d="M32 60.4442C49.6731 60.4442 64 52.4848 64 42.6665C64 32.8481 49.6731 24.8887 32 24.8887C14.3269 24.8887 0 32.8481 0 42.6665C0 52.4848 14.3269 60.4442 32 60.4442Z" fill="#66757F"/>
<path d="M32.0001 55.1108C5.40805 55.1108 1.77783 28.4441 1.77783 21.333H62.2223C62.2223 24.8886 58.7414 55.1108 32.0001 55.1108Z" fill="#E1E8ED"/>
<path d="M62.2223 21.4333C62.2223 30.7061 48.6916 38.2226 32.0001 38.2226C15.3085 38.2226 1.77783 30.7044 1.77783 21.4333C1.77783 12.1621 15.3085 6.41992 32.0001 6.41992C48.6916 6.41992 62.2223 12.1604 62.2223 21.4333Z" fill="#77B255"/>
<path d="M31.9999 35.5559C46.7275 35.5559 58.6666 29.9843 58.6666 23.1114C58.6666 16.2386 46.7275 10.667 31.9999 10.667C17.2723 10.667 5.33325 16.2386 5.33325 23.1114C5.33325 29.9843 17.2723 35.5559 31.9999 35.5559Z" fill="#A6D388"/>
<path d="M37.3334 30.222C36.8619 30.2219 36.4098 30.0346 36.0765 29.7012C31.9218 25.5465 31.8525 21.0167 35.8543 15.0132C37.168 13.0416 37.4543 11.0203 36.704 9.0096C35.8845 6.81227 34.1476 5.46116 33.6267 5.31716C32.6436 5.31716 31.9236 4.5296 31.9236 3.54649C31.9236 2.56338 32.7965 1.7776 33.7778 1.7776C35.5503 1.7776 38.0356 3.82738 39.4365 6.44427C41.2747 9.88071 41.0543 13.6247 38.8125 16.9847C35.3263 22.2149 36.0907 24.686 38.5903 27.1856C38.8403 27.4338 39.0109 27.7508 39.0803 28.0962C39.1497 28.4416 39.1148 28.7998 38.9801 29.1253C38.8453 29.4508 38.6168 29.7289 38.3236 29.9242C38.0304 30.1195 37.6857 30.2232 37.3334 30.222ZM26.6667 26.6665C26.1952 26.6664 25.7431 26.479 25.4098 26.1456C21.2551 21.9909 21.1858 17.4612 25.1876 11.4576C26.48 9.51805 26.7751 7.75449 26.0658 6.21849C25.2765 4.51005 23.5218 3.60694 23.072 3.5536C22.8396 3.55338 22.6094 3.5071 22.3949 3.41744C22.1804 3.32777 21.9858 3.1965 21.8223 3.03121C21.6589 2.86591 21.5298 2.66987 21.4425 2.4544C21.3552 2.23892 21.3115 2.00829 21.3138 1.77582C21.3138 0.794491 22.128 -0.00195312 23.1111 -0.00195312C24.8836 -0.00195312 27.7067 1.7296 29.0845 4.3056C29.9396 5.90382 30.9547 9.21405 28.1458 13.4274C24.6596 18.6576 25.424 21.1287 27.9236 23.6283C28.2569 23.9617 28.4441 24.4138 28.4441 24.8852C28.4441 25.3566 28.2569 25.8087 27.9236 26.142C27.7588 26.3078 27.563 26.4394 27.3474 26.5294C27.1317 26.6194 26.9004 26.666 26.6667 26.6665Z" fill="#5C913B"/>
</g>
<defs>
<clipPath id="clip0_4387_2182">
<rect width="64" height="64" fill="white"/>
</clipPath>
</defs>
</svg>
