<svg width="64" height="64" viewBox="0 0 64 64" fill="none" xmlns="http://www.w3.org/2000/svg">
<path d="M50.6667 54.4266C50.6666 54.8973 50.5419 55.3596 50.3054 55.7665C50.0688 56.1734 49.7287 56.5104 49.3197 56.7433C48.9107 56.9763 48.4474 57.0968 47.9767 57.0927C47.5061 57.0886 47.0449 56.96 46.64 56.7199C37.8933 51.6266 32 42.1066 32 31.9999C32 24.7199 34.88 17.9466 39.3333 12.6666L34.2667 7.59994C34.0824 7.41195 33.9579 7.17362 33.9088 6.91499C33.8598 6.65636 33.8884 6.38899 33.9911 6.14659C34.0937 5.9042 34.2659 5.69761 34.4857 5.55287C34.7056 5.40814 34.9634 5.33173 35.2267 5.33327H49.3333C50.08 5.33327 50.6667 5.91994 50.6667 6.66661V20.7733C50.6667 21.9733 49.2267 22.5599 48.4 21.7066L43.1467 16.4533C39.5733 20.8533 37.3333 26.3466 37.3333 31.9999C37.3333 40.3466 42.2933 48.0266 49.36 52.1333C50.16 52.6133 50.6667 53.4933 50.6667 54.4266Z" fill="#327EF9"/>
<path d="M13.3333 21.3333L18.8267 23.8399L21.3333 29.3333L23.84 23.8399L29.3333 21.3333L23.84 18.8266L21.3333 13.3333L18.8267 18.8266L13.3333 21.3333Z" fill="#2BD0F1"/>
<path d="M23.84 50.5066L21.3333 55.9999L18.8267 50.5066L13.3333 47.9999L18.8267 45.4933L21.3333 39.9999L23.84 45.4933L29.3333 47.9999L23.84 50.5066Z" fill="#2BD0F1"/>
<path d="M8 34.6666L11.6533 32.9866L13.3333 29.3333L15.0133 32.9866L18.6667 34.6666L15.0133 36.3466L13.3333 39.9999L11.6533 36.3466L8 34.6666Z" fill="#2BD0F1"/>
</svg>
