<svg width="64" height="64" viewBox="0 0 64 64" fill="none" xmlns="http://www.w3.org/2000/svg">
<g clip-path="url(#clip0_4387_1847)">
<path d="M31.9999 63.9999C41.8183 63.9999 49.7777 56.0405 49.7777 46.2221C49.7777 36.4037 41.8183 28.4443 31.9999 28.4443C22.1816 28.4443 14.2222 36.4037 14.2222 46.2221C14.2222 56.0405 22.1816 63.9999 31.9999 63.9999Z" fill="#E1E8ED"/>
<path d="M21.3335 19.5556C21.3335 16.7266 22.4573 14.0135 24.4577 12.0131C26.4581 10.0127 29.1712 8.88892 32.0002 8.88892C34.8291 8.88892 37.5422 10.0127 39.5426 12.0131C41.543 14.0135 42.6668 16.7266 42.6668 19.5556C42.6668 22.3846 41.543 25.0977 39.5426 27.0981C37.5422 29.0984 34.8291 30.2222 32.0002 30.2222C29.1712 30.2222 26.4581 29.0984 24.4577 27.0981C22.4573 25.0977 21.3335 22.3846 21.3335 19.5556Z" fill="#E1E8ED"/>
<path d="M40.8891 10.6667C40.8891 11.6097 40.5145 12.514 39.8477 13.1808C39.1809 13.8476 38.2765 14.2222 37.3336 14.2222H26.6669C25.7239 14.2222 24.8195 13.8476 24.1527 13.1808C23.4859 12.514 23.1113 11.6097 23.1113 10.6667V3.55556C23.1113 2.61256 23.4859 1.70819 24.1527 1.0414C24.8195 0.374602 25.7239 0 26.6669 0L37.3336 0C38.2765 0 39.1809 0.374602 39.8477 1.0414C40.5145 1.70819 40.8891 2.61256 40.8891 3.55556V10.6667Z" fill="#414042"/>
<path d="M44.4446 12.4444C44.4446 12.9159 44.2573 13.3681 43.9239 13.7015C43.5905 14.0349 43.1383 14.2222 42.6668 14.2222H21.3334C20.8619 14.2222 20.4098 14.0349 20.0764 13.7015C19.743 13.3681 19.5557 12.9159 19.5557 12.4444C19.5557 11.9729 19.743 11.5207 20.0764 11.1873C20.4098 10.8539 20.8619 10.6666 21.3334 10.6666H42.6668C43.1383 10.6666 43.5905 10.8539 43.9239 11.1873C44.2573 11.5207 44.4446 11.9729 44.4446 12.4444Z" fill="#231F20"/>
<path d="M40.0001 26.6666H24.0001C23.3697 26.6616 22.7581 26.8809 22.2744 27.2852C21.7907 27.6895 21.4666 28.2526 21.3597 28.8739C21.2529 29.4952 21.3704 30.1342 21.6912 30.6769C22.0121 31.2196 22.5153 31.6305 23.1112 31.8364V44.4444C23.1112 44.9159 23.2985 45.368 23.6319 45.7014C23.9653 46.0348 24.4175 46.2221 24.889 46.2221H26.6667C27.1382 46.2221 27.5904 46.0348 27.9238 45.7014C28.2572 45.368 28.4445 44.9159 28.4445 44.4444V31.9999H40.0001C40.7073 31.9999 41.3856 31.719 41.8857 31.2189C42.3858 30.7188 42.6667 30.0405 42.6667 29.3333C42.6667 28.626 42.3858 27.9477 41.8857 27.4476C41.3856 26.9475 40.7073 26.6666 40.0001 26.6666Z" fill="#DD2E44"/>
<path d="M33.7778 42.6667C33.7888 42.9066 33.751 43.1463 33.6669 43.3712C33.5827 43.5961 33.4538 43.8016 33.288 43.9754C33.1222 44.1491 32.9229 44.2874 32.7022 44.382C32.4814 44.4766 32.2438 44.5255 32.0037 44.5258C31.7635 44.526 31.5258 44.4776 31.3049 44.3834C31.084 44.2893 30.8844 44.1513 30.7183 43.9779C30.5521 43.8045 30.4228 43.5993 30.3382 43.3745C30.2535 43.1498 30.2153 42.9102 30.2258 42.6703C30.2458 42.213 30.4414 41.781 30.7719 41.4644C31.1025 41.1477 31.5424 40.9707 32.0001 40.9702C32.4579 40.9698 32.8981 41.1459 33.2293 41.4619C33.5604 41.7779 33.7569 42.2095 33.7778 42.6667ZM33.7778 51.5556C33.7888 51.7955 33.751 52.0352 33.6669 52.2601C33.5827 52.485 33.4538 52.6905 33.288 52.8643C33.1222 53.038 32.9229 53.1763 32.7022 53.2709C32.4814 53.3655 32.2438 53.4144 32.0037 53.4147C31.7635 53.4149 31.5258 53.3665 31.3049 53.2723C31.084 53.1782 30.8844 53.0402 30.7183 52.8668C30.5521 52.6934 30.4228 52.4882 30.3382 52.2634C30.2535 52.0387 30.2153 51.7991 30.2258 51.5592C30.2458 51.1019 30.4414 50.6699 30.7719 50.3532C31.1025 50.0366 31.5424 49.8596 32.0001 49.8591C32.4579 49.8586 32.8981 50.0348 33.2293 50.3508C33.5604 50.6668 33.7569 51.0984 33.7778 51.5556Z" fill="#414042"/>
<path d="M33.7778 21.3333C33.7888 21.5732 33.751 21.8128 33.6669 22.0377C33.5827 22.2626 33.4538 22.4681 33.288 22.6419C33.1222 22.8156 32.9229 22.9539 32.7022 23.0485C32.4814 23.1431 32.2438 23.192 32.0037 23.1923C31.7635 23.1925 31.5258 23.1441 31.3049 23.0499C31.084 22.9558 30.8844 22.8178 30.7183 22.6444C30.5521 22.471 30.4228 22.2658 30.3382 22.041C30.2535 21.8163 30.2153 21.5767 30.2258 21.3368C30.2458 20.8795 30.4414 20.4475 30.7719 20.1309C31.1025 19.8142 31.5424 19.6372 32.0001 19.6367C32.4579 19.6363 32.8981 19.8124 33.2293 20.1284C33.5604 20.4444 33.7569 20.876 33.7778 21.3333Z" fill="#F4900C"/>
<path d="M28.4442 17.7778C28.4442 18.2493 28.2569 18.7015 27.9235 19.0349C27.5901 19.3683 27.1379 19.5556 26.6664 19.5556C26.195 19.5556 25.7428 19.3683 25.4094 19.0349C25.076 18.7015 24.8887 18.2493 24.8887 17.7778C24.8887 17.3063 25.076 16.8541 25.4094 16.5207C25.7428 16.1873 26.195 16 26.6664 16C27.1379 16 27.5901 16.1873 27.9235 16.5207C28.2569 16.8541 28.4442 17.3063 28.4442 17.7778ZM39.1109 17.7778C39.1109 18.2493 38.9236 18.7015 38.5902 19.0349C38.2568 19.3683 37.8046 19.5556 37.3331 19.5556C36.8616 19.5556 36.4094 19.3683 36.076 19.0349C35.7426 18.7015 35.5553 18.2493 35.5553 17.7778C35.5553 17.3063 35.7426 16.8541 36.076 16.5207C36.4094 16.1873 36.8616 16 37.3331 16C37.8046 16 38.2568 16.1873 38.5902 16.5207C38.9236 16.8541 39.1109 17.3063 39.1109 17.7778Z" fill="#414042"/>
<path d="M18.4782 35.6995L12.3413 33.0701L11.3688 27.975C11.2804 27.5118 11.0116 27.1026 10.6215 26.8376C10.2315 26.5725 9.75206 26.4733 9.28882 26.5617C8.82557 26.6501 8.41642 26.9189 8.15137 27.309C7.88632 27.6991 7.78708 28.1785 7.87548 28.6417L8.39815 31.3795L6.03371 30.3661C5.6004 30.1804 5.11105 30.1743 4.6733 30.3494C4.23554 30.5244 3.88525 30.8662 3.69948 31.2995C3.51371 31.7328 3.50768 32.2221 3.68272 32.6599C3.85775 33.0976 4.19951 33.4479 4.63282 33.6337L5.95371 34.199L4.07637 36.0764C3.91132 36.2414 3.78039 36.4374 3.69106 36.653C3.60173 36.8687 3.55575 37.0998 3.55575 37.3333C3.55575 37.5667 3.60173 37.7978 3.69106 38.0135C3.78039 38.2291 3.91132 38.4251 4.07637 38.5901C4.24143 38.7552 4.43738 38.8861 4.65304 38.9755C4.8687 39.0648 5.09984 39.1108 5.33326 39.1108C5.56669 39.1108 5.79783 39.0648 6.01348 38.9755C6.22914 38.8861 6.42509 38.7552 6.59015 38.5901L9.47193 35.7084L17.0773 38.967C17.2918 39.059 17.5224 39.1078 17.7558 39.1107C17.9892 39.1136 18.2209 39.0705 18.4377 38.9838C18.6544 38.8971 18.852 38.7686 19.0191 38.6056C19.1862 38.4426 19.3195 38.2482 19.4115 38.0337C19.5035 37.8191 19.5523 37.5886 19.5552 37.3552C19.558 37.1217 19.5149 36.89 19.4283 36.6733C19.3416 36.4565 19.2131 36.259 19.0501 36.0919C18.887 35.9248 18.6927 35.7915 18.4782 35.6995ZM59.2284 30.3128L56.6239 29.4453L58.1439 27.9253C58.309 27.7602 58.4399 27.5642 58.5292 27.3486C58.6186 27.1329 58.6645 26.9018 58.6645 26.6684C58.6645 26.4349 58.6186 26.2038 58.5292 25.9881C58.4399 25.7725 58.309 25.5765 58.1439 25.4115C57.9789 25.2464 57.7829 25.1155 57.5673 25.0262C57.3516 24.9368 57.1205 24.8909 56.887 24.8909C56.6536 24.8909 56.4225 24.9368 56.2068 25.0262C55.9912 25.1155 55.7952 25.2464 55.6302 25.4115L54.295 26.7466L53.2782 22.6808C53.2214 22.4545 53.1207 22.2415 52.9816 22.0541C52.8426 21.8667 52.668 21.7085 52.4679 21.5886C52.2677 21.4687 52.0459 21.3893 51.8151 21.3551C51.5842 21.3209 51.3489 21.3325 51.1226 21.3893C50.8963 21.446 50.6833 21.5467 50.4959 21.6858C50.3085 21.8248 50.1503 21.9994 50.0304 22.1995C49.9105 22.3997 49.8311 22.6215 49.7969 22.8523C49.7627 23.0832 49.7743 23.3185 49.831 23.5448L51.3635 29.6781L44.9635 36.0781C44.6304 36.4117 44.4434 36.864 44.4438 37.3354C44.4441 37.8068 44.6317 38.2588 44.9653 38.5919C45.2988 38.925 45.7511 39.112 46.2225 39.1117C46.6939 39.1113 47.1459 38.9237 47.479 38.5901L53.8133 32.2559L58.103 33.687C58.2927 33.7487 58.4805 33.7789 58.6666 33.7777C59.0905 33.7807 59.5015 33.632 59.8253 33.3584C60.1491 33.0848 60.3644 32.7044 60.4322 32.286C60.5001 31.8675 60.416 31.4386 60.1952 31.0768C59.9744 30.7149 59.6315 30.4439 59.2284 30.3128Z" fill="#FFAC33"/>
<path d="M17.9202 3.7565C17.7892 3.56073 17.586 3.42493 17.355 3.37893C17.124 3.33293 16.8842 3.38049 16.6882 3.51117L15.1113 4.56183V2.66672C15.1113 2.43097 15.0177 2.20488 14.851 2.03818C14.6843 1.87148 14.4582 1.77783 14.2224 1.77783C13.9867 1.77783 13.7606 1.87148 13.5939 2.03818C13.4272 2.20488 13.3335 2.43097 13.3335 2.66672V4.56183L11.7566 3.51117C11.6599 3.43938 11.5495 3.38801 11.4323 3.36019C11.3151 3.33237 11.1934 3.32868 11.0747 3.34933C10.956 3.36999 10.8427 3.41456 10.7418 3.48034C10.6408 3.54613 10.5543 3.63175 10.4875 3.732C10.4206 3.83225 10.3749 3.94505 10.353 4.06353C10.3311 4.18202 10.3335 4.30371 10.3601 4.42123C10.3867 4.53875 10.4369 4.64964 10.5076 4.74716C10.5784 4.84467 10.6683 4.92678 10.7718 4.9885L12.6206 6.22228L10.7718 7.45428C10.5754 7.58512 10.439 7.78861 10.3927 8.01999C10.3463 8.25137 10.3938 8.49168 10.5246 8.68805C10.6555 8.88443 10.859 9.02079 11.0904 9.06713C11.3217 9.11348 11.562 9.06601 11.7584 8.93517L13.3335 7.88272V9.77783C13.3335 10.0136 13.4272 10.2397 13.5939 10.4064C13.7606 10.5731 13.9867 10.6667 14.2224 10.6667C14.4582 10.6667 14.6843 10.5731 14.851 10.4064C15.0177 10.2397 15.1113 10.0136 15.1113 9.77783V7.88272L16.6882 8.93339C16.7853 8.99817 16.8943 9.04319 17.0088 9.06588C17.1233 9.08857 17.2412 9.08848 17.3556 9.06562C17.4701 9.04275 17.579 8.99756 17.676 8.93263C17.773 8.86769 17.8563 8.78429 17.9211 8.68717C17.9859 8.59005 18.0309 8.48112 18.0536 8.3666C18.0763 8.25208 18.0762 8.13421 18.0533 8.01973C18.0305 7.90524 17.9853 7.79638 17.9203 7.69936C17.8554 7.60234 17.772 7.51906 17.6749 7.45428L15.8242 6.22228L17.6731 4.99028C17.7704 4.92557 17.854 4.8423 17.9191 4.74524C17.9842 4.64818 18.0296 4.53923 18.0525 4.42464C18.0755 4.31004 18.0756 4.19204 18.0529 4.07739C18.0302 3.96274 17.9851 3.8537 17.9202 3.7565ZM10.8091 16.2009C10.6781 16.0052 10.4748 15.8694 10.2438 15.8234C10.0129 15.7774 9.77305 15.8249 9.57709 15.9556L8.0002 17.0063V15.1112C8.0002 14.8754 7.90655 14.6493 7.73985 14.4826C7.57315 14.3159 7.34706 14.2223 7.11131 14.2223C6.87556 14.2223 6.64947 14.3159 6.48277 14.4826C6.31607 14.6493 6.22242 14.8754 6.22242 15.1112V17.0063L4.64553 15.9556C4.54876 15.8838 4.43841 15.8325 4.32117 15.8046C4.20394 15.7768 4.08227 15.7731 3.96357 15.7938C3.84486 15.8144 3.73159 15.859 3.63064 15.9248C3.5297 15.9906 3.44318 16.0762 3.37634 16.1764C3.3095 16.2767 3.26375 16.3895 3.24185 16.508C3.21996 16.6265 3.22238 16.7482 3.24897 16.8657C3.27556 16.9832 3.32576 17.0941 3.39653 17.1916C3.4673 17.2891 3.55716 17.3712 3.66064 17.4329L5.50953 18.6649L3.66064 19.8969C3.4645 20.0278 3.32837 20.2312 3.28219 20.4624C3.23602 20.6936 3.28358 20.9337 3.41442 21.1298C3.54526 21.326 3.74866 21.4621 3.97987 21.5083C4.21108 21.5545 4.45117 21.5069 4.64731 21.3761L6.22242 20.3272V22.2223C6.22242 22.458 6.31607 22.6841 6.48277 22.8508C6.64947 23.0175 6.87556 23.1112 7.11131 23.1112C7.34706 23.1112 7.57315 23.0175 7.73985 22.8508C7.90655 22.6841 8.0002 22.458 8.0002 22.2223V20.3272L9.57709 21.3778C9.77323 21.5087 10.0133 21.5562 10.2445 21.5101C10.4757 21.4639 10.6791 21.3278 10.81 21.1316C10.9408 20.9355 10.9884 20.6954 10.9422 20.4642C10.896 20.233 10.7599 20.0296 10.5638 19.8987L8.71309 18.6667L10.562 17.4347C10.6593 17.37 10.7429 17.2867 10.808 17.1897C10.8731 17.0926 10.9185 16.9837 10.9414 16.8691C10.9644 16.7545 10.9645 16.6365 10.9418 16.5218C10.9191 16.4072 10.874 16.2981 10.8091 16.2009ZM10.8091 46.4232C10.6784 46.2271 10.4753 46.0909 10.2442 46.0446C10.0132 45.9983 9.77326 46.0456 9.57709 46.1761L8.0002 47.2285V45.3334C8.0002 45.0976 7.90655 44.8715 7.73985 44.7048C7.57315 44.5381 7.34706 44.4445 7.11131 44.4445C6.87556 44.4445 6.64947 44.5381 6.48277 44.7048C6.31607 44.8715 6.22242 45.0976 6.22242 45.3334V47.2285L4.64553 46.1778C4.54852 46.109 4.43869 46.0604 4.32255 46.0348C4.20641 46.0093 4.08632 46.0073 3.96938 46.0289C3.85245 46.0506 3.74106 46.0955 3.6418 46.161C3.54254 46.2265 3.45743 46.3113 3.39152 46.4103C3.32561 46.5093 3.28023 46.6205 3.25807 46.7373C3.23591 46.8542 3.23742 46.9743 3.26252 47.0905C3.28761 47.2068 3.33578 47.3168 3.40417 47.4141C3.47255 47.5114 3.55977 47.594 3.66064 47.6569L5.50953 48.8889L3.66064 50.1209C3.56353 50.1857 3.48012 50.269 3.41518 50.366C3.35025 50.463 3.30506 50.5719 3.28219 50.6864C3.25933 50.8009 3.25924 50.9187 3.28193 51.0333C3.30462 51.1478 3.34964 51.2567 3.41442 51.3538C3.47921 51.451 3.56249 51.5344 3.65951 51.5993C3.75653 51.6642 3.86539 51.7094 3.97987 51.7323C4.09436 51.7551 4.21222 51.7552 4.32674 51.7326C4.44126 51.7099 4.55019 51.6648 4.64731 51.6001L6.22242 50.5494V52.4445C6.22242 52.6802 6.31607 52.9063 6.48277 53.073C6.64947 53.2397 6.87556 53.3334 7.11131 53.3334C7.34706 53.3334 7.57315 53.2397 7.73985 53.073C7.90655 52.9063 8.0002 52.6802 8.0002 52.4445V50.5494L9.57709 51.6001C9.67421 51.6648 9.78314 51.7099 9.89766 51.7326C10.0122 51.7552 10.13 51.7551 10.2445 51.7323C10.359 51.7094 10.4679 51.6642 10.5649 51.5993C10.6619 51.5344 10.7452 51.451 10.81 51.3538C10.8748 51.2567 10.9198 51.1478 10.9425 51.0333C10.9652 50.9187 10.9651 50.8009 10.9422 50.6864C10.9193 50.5719 10.8742 50.463 10.8092 50.366C10.7443 50.269 10.6609 50.1857 10.5638 50.1209L8.71309 48.8889L10.562 47.6569C10.6593 47.5922 10.7429 47.509 10.808 47.4119C10.8731 47.3148 10.9185 47.2059 10.9414 47.0913C10.9644 46.9767 10.9645 46.8587 10.9418 46.7441C10.9191 46.6294 10.874 46.5204 10.8091 46.4232ZM60.2687 16.8889L62.1175 15.6569C62.2184 15.594 62.3056 15.5114 62.374 15.4141C62.4424 15.3168 62.4906 15.2068 62.5157 15.0905C62.5408 14.9743 62.5423 14.8542 62.5201 14.7373C62.498 14.6205 62.4526 14.5093 62.3867 14.4103C62.3208 14.3113 62.2356 14.2265 62.1364 14.161C62.0371 14.0955 61.9257 14.0506 61.8088 14.0289C61.6919 14.0073 61.5718 14.0093 61.4556 14.0348C61.3395 14.0604 61.2297 14.109 61.1327 14.1778L59.5558 15.2285V13.3334C59.5558 13.0976 59.4621 12.8715 59.2954 12.7048C59.1287 12.5381 58.9026 12.4445 58.6669 12.4445C58.4311 12.4445 58.205 12.5381 58.0383 12.7048C57.8716 12.8715 57.778 13.0976 57.778 13.3334V15.2285L56.2011 14.1778C56.1041 14.109 55.9942 14.0604 55.8781 14.0348C55.762 14.0093 55.6419 14.0073 55.5249 14.0289C55.408 14.0506 55.2966 14.0955 55.1974 14.161C55.0981 14.2265 55.013 14.3113 54.9471 14.4103C54.8812 14.5093 54.8358 14.6205 54.8136 14.7373C54.7915 14.8542 54.793 14.9743 54.8181 15.0905C54.8432 15.2068 54.8913 15.3168 54.9597 15.4141C55.0281 15.5114 55.1153 15.594 55.2162 15.6569L57.0651 16.8889L55.2162 18.1209C55.1191 18.1857 55.0357 18.269 54.9707 18.366C54.9058 18.463 54.8606 18.5719 54.8377 18.6864C54.8149 18.8009 54.8148 18.9187 54.8375 19.0333C54.8602 19.1478 54.9052 19.2567 54.97 19.3538C55.0348 19.451 55.118 19.5344 55.2151 19.5993C55.3121 19.6642 55.4209 19.7094 55.5354 19.7323C55.6499 19.7551 55.7678 19.7552 55.8823 19.7325C55.9968 19.7099 56.1057 19.6648 56.2029 19.6001L57.7798 18.5494V20.4445C57.7798 20.6802 57.8734 20.9063 58.0401 21.073C58.2068 21.2397 58.4329 21.3334 58.6686 21.3334C58.9044 21.3334 59.1305 21.2397 59.2972 21.073C59.4639 20.9063 59.5575 20.6802 59.5575 20.4445V18.5494L61.1344 19.6001C61.2315 19.6648 61.3405 19.7099 61.455 19.7325C61.5695 19.7552 61.6874 19.7551 61.8019 19.7323C61.9164 19.7094 62.0252 19.6642 62.1222 19.5993C62.2192 19.5344 62.3025 19.451 62.3673 19.3538C62.4321 19.2567 62.4771 19.1478 62.4998 19.0333C62.5225 18.9187 62.5224 18.8009 62.4995 18.6864C62.4767 18.5719 62.4315 18.463 62.3666 18.366C62.3016 18.269 62.2182 18.1857 62.1211 18.1209L60.2687 16.8889ZM60.5869 41.0898C60.4562 40.8938 60.253 40.7576 60.022 40.7113C59.791 40.6649 59.551 40.7122 59.3549 40.8427L57.778 41.8952V40.0001C57.778 39.7643 57.6843 39.5382 57.5176 39.3715C57.3509 39.2048 57.1248 39.1112 56.8891 39.1112C56.6533 39.1112 56.4272 39.2048 56.2605 39.3715C56.0939 39.5382 56.0002 39.7643 56.0002 40.0001V41.8952L54.4233 40.8445C54.3263 40.7757 54.2165 40.7271 54.1003 40.7015C53.9842 40.6759 53.8641 40.6739 53.7472 40.6956C53.6302 40.7173 53.5188 40.7622 53.4196 40.8277C53.3203 40.8932 53.2352 40.978 53.1693 41.077C53.1034 41.1759 53.058 41.2871 53.0358 41.404C53.0137 41.5208 53.0152 41.6409 53.0403 41.7572C53.0654 41.8734 53.1136 41.9835 53.1819 42.0807C53.2503 42.178 53.3375 42.2606 53.4384 42.3236L55.2873 43.5556L53.4384 44.7876C53.3413 44.8524 53.2579 44.9357 53.193 45.0327C53.128 45.1297 53.0828 45.2386 53.06 45.3531C53.0371 45.4675 53.037 45.5854 53.0597 45.6999C53.0824 45.8145 53.1274 45.9234 53.1922 46.0205C53.257 46.1176 53.3403 46.201 53.4373 46.266C53.5343 46.3309 53.6432 46.3761 53.7577 46.3989C53.8721 46.4218 53.99 46.4219 54.1045 46.3992C54.219 46.3765 54.328 46.3315 54.4251 46.2667L56.002 45.2161V47.1112C56.002 47.3469 56.0956 47.573 56.2623 47.7397C56.429 47.9064 56.6551 48.0001 56.8909 48.0001C57.1266 48.0001 57.3527 47.9064 57.5194 47.7397C57.6861 47.573 57.7798 47.3469 57.7798 47.1112V45.2161L59.3566 46.2667C59.4538 46.3315 59.5627 46.3765 59.6772 46.3992C59.7917 46.4219 59.9096 46.4218 60.0241 46.3989C60.1386 46.3761 60.2474 46.3309 60.3444 46.266C60.4415 46.201 60.5248 46.1176 60.5895 46.0205C60.6543 45.9234 60.6993 45.8145 60.722 45.6999C60.7447 45.5854 60.7446 45.4675 60.7218 45.3531C60.6989 45.2386 60.6537 45.1297 60.5888 45.0327C60.5238 44.9357 60.4404 44.8524 60.3433 44.7876L58.4944 43.5556L60.3433 42.3236C60.4404 42.2586 60.5236 42.1751 60.5884 42.078C60.6532 41.9808 60.6981 41.8718 60.7208 41.7572C60.7434 41.6426 60.7432 41.5247 60.7202 41.4102C60.6972 41.2957 60.6519 41.1868 60.5869 41.0898ZM53.2286 7.45428L51.3798 6.22228L53.2286 4.99028C53.3295 4.9273 53.4167 4.84471 53.4851 4.74742C53.5535 4.65012 53.6017 4.54009 53.6268 4.42384C53.6519 4.3076 53.6534 4.1875 53.6312 4.07065C53.6091 3.95381 53.5637 3.84261 53.4978 3.74362C53.4319 3.64463 53.3468 3.55987 53.2475 3.49437C53.1482 3.42887 53.0368 3.38395 52.9199 3.36227C52.803 3.3406 52.6829 3.34261 52.5667 3.36818C52.4506 3.39376 52.3408 3.44238 52.2438 3.51117L50.6669 4.56183V2.66672C50.6669 2.43097 50.5732 2.20488 50.4065 2.03818C50.2398 1.87148 50.0137 1.77783 49.778 1.77783C49.5422 1.77783 49.3161 1.87148 49.1494 2.03818C48.9827 2.20488 48.8891 2.43097 48.8891 2.66672V4.56183L47.3122 3.51117C47.2152 3.44238 47.1054 3.39376 46.9892 3.36818C46.8731 3.34261 46.753 3.3406 46.636 3.36227C46.5191 3.38395 46.4077 3.42887 46.3085 3.49437C46.2092 3.55987 46.1241 3.64463 46.0582 3.74362C45.9923 3.84261 45.9469 3.95381 45.9247 4.07065C45.9026 4.1875 45.9041 4.3076 45.9292 4.42384C45.9543 4.54009 46.0024 4.65012 46.0708 4.74742C46.1392 4.84471 46.2264 4.9273 46.3273 4.99028L48.1762 6.22228L46.3273 7.45428C46.2302 7.51906 46.1468 7.60234 46.0818 7.69936C46.0169 7.79638 45.9717 7.90524 45.9489 8.01973C45.926 8.13421 45.9259 8.25208 45.9486 8.3666C45.9713 8.48112 46.0163 8.59005 46.0811 8.68717C46.1459 8.78429 46.2292 8.86769 46.3262 8.93263C46.4232 8.99756 46.5321 9.04275 46.6465 9.06562C46.761 9.08848 46.8789 9.08857 46.9934 9.06588C47.1079 9.04319 47.2169 8.99817 47.314 8.93339L48.8891 7.88272V9.77783C48.8891 10.0136 48.9827 10.2397 49.1494 10.4064C49.3161 10.5731 49.5422 10.6667 49.778 10.6667C50.0137 10.6667 50.2398 10.5731 50.4065 10.4064C50.5732 10.2397 50.6669 10.0136 50.6669 9.77783V7.88272L52.2438 8.93339C52.3408 9.00217 52.4506 9.0508 52.5667 9.07637C52.6829 9.10195 52.803 9.10396 52.9199 9.08228C53.0368 9.0606 53.1482 9.01568 53.2475 8.95018C53.3468 8.88468 53.4319 8.79992 53.4978 8.70094C53.5637 8.60195 53.6091 8.49074 53.6312 8.3739C53.6534 8.25706 53.6519 8.13696 53.6268 8.02071C53.6017 7.90446 53.5535 7.79443 53.4851 7.69714C53.4167 7.59984 53.3295 7.51726 53.2286 7.45428Z" fill="#88C9F9"/>
</g>
<defs>
<clipPath id="clip0_4387_1847">
<rect width="64" height="64" fill="white"/>
</clipPath>
</defs>
</svg>
