<svg width="214" height="215" viewBox="0 0 214 215" fill="none" xmlns="http://www.w3.org/2000/svg">
<path d="M0 83.4062C0.0776206 83.0181 0.465724 78.5549 1.16431 70.0167C1.86289 61.4784 2.21219 57.0928 2.21219 56.86V56.1614H73.3515V56.86C73.4291 57.2481 73.8172 61.7113 74.5158 70.2495C75.2144 78.7878 75.5637 83.1734 75.5637 83.4062V84.1048H70.9064V83.4062C70.9064 83.251 70.79 81.8926 70.5571 79.3311C70.3243 76.7697 69.8974 74.2082 69.2764 71.6467C68.6554 69.0852 67.8404 67.1835 66.8313 65.9416C65.5118 64.3115 63.3772 63.0696 60.4276 62.2158C58.7976 61.8277 55.8092 61.6336 51.4625 61.6336H48.3188H47.3874C45.3692 61.6336 44.2437 62.0994 44.0109 63.0308C43.9333 63.186 43.8945 74.0141 43.8945 95.515V127.65C44.4378 128.426 45.4469 128.931 46.9217 129.164C48.3964 129.396 51.8506 129.552 57.284 129.629H60.7769V134.985H59.2633L37.84 134.636C24.2564 134.791 17.1153 134.907 16.4168 134.985H14.9032V129.629H18.3961C23.8295 129.629 27.2836 129.513 28.7584 129.28C30.2332 129.047 31.2423 128.504 31.7856 127.65V95.515V70.9481C31.7856 65.5147 31.5916 62.6039 31.2035 62.2158C30.8154 61.8277 29.5346 61.6336 27.3613 61.6336H24.2176H21.889C16.4556 61.6336 12.3805 62.7591 9.66377 65.0101C8.26659 66.2521 7.25753 68.0761 6.63656 70.4824C6.0156 72.8886 5.54987 75.5277 5.23939 78.3997C4.92891 81.2716 4.73486 82.9405 4.65724 83.4062V84.1048H0V83.4062Z" fill="#3A3A3A"/>
<path d="M78.4746 88.0052C77.9312 87.4619 77.5043 87.1126 77.1938 86.9573C76.8833 86.8021 76.2624 86.6856 75.3309 86.608C74.3995 86.5304 72.7306 86.414 70.3244 86.2587H66.4822V80.9029H133.081V81.3686C133.236 81.8344 133.779 86.3364 134.711 94.8746C135.642 103.413 136.185 107.915 136.341 108.381V108.846H131.683V108.381C131.606 108.148 131.489 107.333 131.334 105.936C131.024 103.219 130.558 100.851 129.937 98.8333C129.316 96.8151 128.656 95.0687 127.958 93.5939C127.259 92.1191 126.289 90.9548 125.047 90.101C123.805 89.2471 122.641 88.5485 121.554 88.0052C120.467 87.4619 118.876 87.0738 116.78 86.8409C114.685 86.608 112.899 86.4528 111.425 86.3752C109.95 86.2975 107.699 86.2587 104.672 86.2587C97.9185 86.2587 93.9599 86.2975 92.7956 86.3752C91.6313 86.4528 90.9327 86.8797 90.6998 87.6559C90.6998 87.6559 90.6998 87.6947 90.6998 87.7723C90.6222 87.9276 90.5834 92.7401 90.5834 102.21V116.298H96.8706C102.537 116.143 106.069 115.793 107.466 115.25C110.26 114.008 111.774 110.748 112.007 105.47C112.007 105.315 112.007 105.159 112.007 105.004V102.675H116.664V135.276H112.007V132.948C111.929 130.231 111.619 128.096 111.075 126.544C110.532 124.991 109.562 123.866 108.164 123.167C106.767 122.469 105.448 122.042 104.206 121.887C102.964 121.731 100.946 121.654 98.1514 121.654C97.608 121.654 97.1811 121.654 96.8706 121.654H90.5834V137.255V146.803C90.5834 151.227 90.7774 153.633 91.1655 154.022C91.6313 154.41 93.6494 154.604 97.2199 154.604H103.158H109.096C111.968 154.604 114.335 154.487 116.198 154.254C118.061 154.022 120.118 153.556 122.369 152.857C124.62 152.159 126.444 150.994 127.841 149.364C129.238 147.734 130.48 145.638 131.567 143.077C132.343 141.059 132.925 138.963 133.314 136.79C133.702 134.616 134.012 132.792 134.245 131.317C134.478 129.843 134.672 128.95 134.827 128.64V128.29H139.484V128.64C139.407 128.872 138.631 134.034 137.156 144.125C135.681 154.216 134.827 159.416 134.594 159.727V160.076H66.4822V154.72H70.3244C73.5845 154.642 75.5638 154.526 76.2624 154.371C76.961 154.216 77.6984 153.75 78.4746 152.974V88.0052Z" fill="#3A3A3A"/>
<path d="M160.908 134.985C159.51 134.752 154.504 134.636 145.888 134.636C138.514 134.636 134.245 134.752 133.081 134.985H132.149V129.629H134.128C141.037 129.319 145.733 127.689 148.217 124.739C148.527 124.273 151.748 119.306 157.88 109.836C164.012 100.366 167.117 95.5927 167.195 95.515C167.195 95.3598 163.741 89.8875 156.833 79.0983C149.924 68.309 146.354 62.7979 146.121 62.5651C145.345 61.8665 144.413 61.4008 143.327 61.1679C142.24 60.935 139.834 60.8186 136.108 60.8186H133.779V55.4628H134.827C136.224 55.6957 141.114 55.8121 149.497 55.8121C159.2 55.8121 164.866 55.6957 166.496 55.4628H167.777V60.8186H167.195C165.875 60.8186 164.401 61.0127 162.77 61.4008C161.14 61.7889 160.248 62.2158 160.093 62.6815C160.093 62.9144 162.382 66.6402 166.962 73.8589C171.542 81.0776 173.948 84.7258 174.181 84.8034C174.258 84.8034 176.315 81.6986 180.352 75.4889C184.388 69.2793 186.406 66.0968 186.406 65.9416C186.484 65.7863 186.522 65.5535 186.522 65.243C186.522 64.3115 186.018 63.4189 185.009 62.5651C184 61.7113 182.409 61.1291 180.235 60.8186H179.304V55.4628H180.352C181.749 55.6957 186.755 55.8121 195.371 55.8121C202.745 55.8121 207.014 55.6957 208.179 55.4628H209.11V60.8186H207.131C200.766 61.0515 196.264 62.5263 193.625 65.243C193.392 65.4759 190.559 69.6674 185.125 77.8175C180.002 85.8125 177.441 89.8487 177.441 89.9263C177.441 90.0816 181.399 96.3689 189.317 108.788C197.234 121.207 201.348 127.534 201.658 127.766C202.279 128.465 203.133 128.931 204.22 129.164C205.307 129.396 207.364 129.552 210.391 129.629H214V134.985H212.952C211.555 134.752 206.665 134.636 198.282 134.636C188.579 134.636 182.913 134.752 181.283 134.985H180.002V129.629H180.701C181.788 129.629 183.185 129.435 184.892 129.047C186.6 128.659 187.493 128.154 187.57 127.534C187.57 127.301 186.173 124.972 183.379 120.548C180.584 116.123 177.751 111.699 174.879 107.275L170.571 100.638L170.222 100.987C170.067 101.143 169.795 101.492 169.407 102.035C169.019 102.579 168.553 103.277 168.01 104.131C167.467 104.985 166.729 106.11 165.798 107.507C164.866 108.905 163.857 110.496 162.77 112.281C157.57 120.586 154.931 124.894 154.853 125.205C154.853 126.292 155.474 127.262 156.716 128.116C157.958 128.97 159.433 129.474 161.14 129.629H162.072V134.985H160.908Z" fill="#3A3A3A"/>
</svg>
