<svg width="200" height="200" viewBox="0 0 200 200" fill="none" xmlns="http://www.w3.org/2000/svg">
<path d="M30.9332 11.4634C26.0615 11.4634 25.1282 11.4634 14.6587 12.2931C14.8659 10.4265 14.9695 9.07987 14.9695 8.14657C14.9695 7.21327 14.8659 5.86561 14.6587 4C27.3046 4.62253 34.2501 4.82971 41.4027 4.82971C48.4518 4.82971 53.3235 4.72612 67.836 4C67.6288 5.8666 67.5252 7.21327 67.5252 8.14657C67.5252 9.07987 67.6288 10.4275 67.836 12.2931C57.4701 11.4634 56.4332 11.4634 51.1461 11.4634H48.7616V15.9208L48.8652 35.5131C48.8652 52.9281 49.1759 65.7822 49.5913 76.4589C45.8591 76.2517 43.0602 76.1482 41.1946 76.1482C39.328 76.1482 36.5291 76.2517 32.7978 76.4589C33.2122 66.5074 33.4194 58.3178 33.5239 42.2505L33.6275 15.9208L33.7311 11.4634H30.9332Z" fill="#0078B8"/>
<path d="M76.3689 86.565C76.3689 89.4675 76.3689 90.9188 76.4725 94.132C79.1678 94.2356 80.2047 94.2356 81.9667 94.2356C87.1492 94.2356 89.9481 94.132 100.315 93.4069C100.211 95.2725 100.108 96.6202 100.108 97.5535C100.108 98.4868 100.211 99.8344 100.315 101.7C89.0158 101.078 83.2108 100.871 74.7104 100.871C70.2531 100.871 66.2101 101.078 60.4051 101.7C61.0267 93.7186 61.2338 88.846 61.2338 78.0657C61.2338 45.7228 61.1303 37.9486 60.4051 28.7222C66.4173 29.3447 73.052 29.5519 83.1072 29.5519C89.9491 29.5519 93.6803 29.3447 100.419 28.7222C100.315 30.5888 100.211 31.9354 100.211 32.8687C100.211 33.802 100.315 35.1497 100.419 37.0153C88.705 36.3928 88.4978 36.3928 76.4735 36.082C76.3699 39.8142 76.3699 41.3681 76.3699 44.9967C76.3699 47.692 76.3699 47.692 76.4735 54.9483V59.9236H80.8272C87.3583 59.9236 90.0527 59.82 99.6935 59.0938C99.5899 61.2712 99.4863 62.8261 99.4863 63.9656C99.4863 65.0024 99.5899 66.5573 99.6935 68.7337C93.0587 68.1121 89.2239 67.904 82.4856 67.904H76.4735C76.4735 70.2885 76.4735 73.6054 76.3699 77.8555V86.565H76.3689Z" fill="#0078B8"/>
<path d="M162.069 76.4593C154.916 76.1485 154.502 76.1485 152.117 76.1485C149.94 76.1485 147.867 76.2521 142.58 76.4593C138.122 66.4041 135.116 60.0802 129.622 49.8178C122.677 60.5991 119.049 66.9221 114.487 76.4593C112 76.2521 110.03 76.1485 108.786 76.1485C107.542 76.1485 105.572 76.2521 102.981 76.4593C108.889 68.2697 114.073 60.4955 125.267 42.7698C113.865 22.1405 106.608 9.391 103.706 4.51831C110.444 4.82908 111.273 4.82908 113.449 4.82908C115.419 4.82908 116.663 4.82908 123.194 4.51831C127.547 14.1591 127.547 14.2627 128.999 17.3724C130.553 20.4821 131.071 21.519 135.322 29.2932C139.365 23.6953 144.962 14.2627 149.938 4.51831C152.529 4.72549 154.603 4.82908 155.95 4.82908C157.298 4.82908 159.267 4.72549 161.962 4.51831C158.438 9.39001 158.023 10.0125 152.425 17.9949L144.443 29.2941L139.778 36.3432L142.266 41.1113C146.931 49.5081 151.492 57.8012 156.053 66.1969C157.194 68.5815 158.541 70.965 160.2 73.4532L162.069 76.4593Z" fill="#0078B8"/>
<path d="M30.5188 172.977C30.5188 176.294 30.5188 177.124 30.9332 186.972C44.2016 186.972 47.6231 186.868 55.0865 186.143C54.8793 188.009 54.7757 189.356 54.7757 190.29C54.7757 191.223 54.8793 192.571 55.0865 194.436C47.3123 193.711 43.1657 193.607 32.6962 193.607C24.4031 193.607 22.0185 193.711 14.6587 194.436C15.4874 183.552 15.4874 182.826 15.4874 155.149V145.82V136.593C15.4874 130.788 15.3838 127.989 14.6587 121.977C18.3909 122.184 21.1898 122.288 23.0554 122.288C24.921 122.288 27.7209 122.184 31.4521 121.977C30.727 129.337 30.6234 132.655 30.6234 140.948V155.357L30.5198 167.278V172.977H30.5188Z" fill="#0078B8"/>
<path d="M79.8574 128.383C79.8574 132.84 76.3334 136.364 71.876 136.364C67.4187 136.364 63.8947 132.736 63.8947 128.279C63.8947 124.029 67.5223 120.4 71.876 120.4C76.3334 120.4 79.8574 123.925 79.8574 128.383ZM65.0342 168.209C65.0342 156.599 64.9306 152.453 64.2044 143.849C67.5213 144.056 70.0095 144.16 71.6679 144.16C73.4299 144.16 75.9181 144.056 79.2349 143.849C78.717 151.209 78.5098 156.806 78.5098 167.38C78.5098 180.649 78.717 187.594 79.2349 193.917C75.9181 193.71 73.4299 193.607 71.6679 193.607C70.0095 193.607 67.5213 193.71 64.2044 193.917C64.827 188.009 65.0342 180.752 65.0342 168.209Z" fill="#0078B8"/>
<path d="M96.2336 144.16C98.1001 144.16 100.898 144.056 104.527 143.849C109.71 161.678 111.161 166.551 115.515 179.198C120.491 166.655 124.637 154.63 127.436 143.849C129.51 144.056 131.065 144.16 131.998 144.16C133.034 144.16 134.589 144.056 136.559 143.849C128.888 161.367 124.43 173.185 117.382 193.918C114.895 193.71 112.923 193.607 111.68 193.607C110.437 193.607 108.467 193.71 105.98 193.918C98.8273 171.838 93.1258 156.184 87.8388 143.849C91.569 144.056 94.3679 144.16 96.2336 144.16Z" fill="#0078B8"/>
<path d="M182.788 184.588C181.44 187.594 181.233 188.112 180.196 191.118C173.977 194.124 170.452 195.057 164.336 195.057C148.061 195.057 138.317 185.106 138.317 168.416C138.317 152.659 147.647 142.708 162.574 142.708C175.842 142.708 184.55 151.104 184.55 163.855C184.55 165.202 184.447 166.861 184.343 168.726C177.812 168.623 169.519 168.623 162.367 168.623C159.568 168.623 159.568 168.623 153.245 168.726C153.555 174.324 154.074 176.916 155.629 180.233C158.013 185.312 162.782 188.318 168.482 188.318C172.941 188.318 176.258 187.177 181.44 183.55L182.788 184.588ZM169.623 161.471C169.623 152.764 166.72 147.477 161.952 147.477C156.458 147.477 153.347 153.282 153.245 163.751C161.019 163.855 161.227 163.855 163.611 163.855C165.684 163.855 166.825 163.855 169.519 163.751C169.623 162.715 169.623 161.782 169.623 161.471Z" fill="#0078B8"/>
</svg>
